<svg width="" height="" viewBox="0 0 48 60" fill="none" xmlns="http://www.w3.org/2000/svg">
<path d="M36.3333 25.9167V15.5C36.3333 12.1848 35.0164 9.00536 32.6722 6.66117C30.3281 4.31697 27.1486 3 23.8333 3C20.5181 3 17.3387 4.31697 14.9945 6.66117C12.6503 9.00536 11.3333 12.1848 11.3333 15.5V25.9167M9.25 57.1667H38.4167C40.0742 57.1667 41.6639 56.5081 42.8361 55.3361C44.0081 54.1639 44.6667 52.5742 44.6667 50.9167V32.1667C44.6667 30.5092 44.0081 28.9194 42.8361 27.7472C41.6639 26.5751 40.0742 25.9167 38.4167 25.9167H9.25C7.59239 25.9167 6.00269 26.5751 4.83058 27.7472C3.65847 28.9194 3 30.5092 3 32.1667V50.9167C3 52.5742 3.65847 54.1639 4.83058 55.3361C6.00269 56.5081 7.59239 57.1667 9.25 57.1667Z" stroke="#FF5B5B" stroke-width="5" stroke-linecap="round" stroke-linejoin="round"/>
</svg>
