<svg width="" height="" viewBox="0 0 51 51" fill="none" xmlns="http://www.w3.org/2000/svg">
<path d="M20.8408 0.352795C12.9802 1.77875 6.0287 7.03695 2.42817 14.2558C0.966567 17.1969 0.0396966 21.1896 0.00404775 24.594C-0.0137767 26.6973 0.00404773 26.7508 0.556605 27.7133C2.01821 30.2444 4.29973 32.6507 6.75951 34.2905C10.1996 36.5542 12.1603 37.3207 15.4578 37.7128C17.2224 37.9089 21.2508 37.8376 22.142 37.588C22.748 37.4098 22.5341 37.1068 21.6251 36.8929C19.7357 36.3938 17.4185 34.9322 15.9213 33.2745C10.4135 27.1251 12.3207 17.5534 19.7713 13.9885C21.6785 13.0794 22.8015 12.8477 25.0295 12.8655C28.5231 12.8834 31.3037 14.0063 33.5853 16.3057C35.1538 17.892 35.9203 19.1041 36.6689 21.243C37.1858 22.6868 37.2214 22.9898 37.2214 25.1288C37.2214 27.0716 37.1502 27.6242 36.8115 28.6045C35.8133 31.4564 34.1556 33.6667 31.5711 35.5917C24.4413 40.8677 15.3331 41.5807 7.5616 37.4633C5.63657 36.4473 4.46015 35.6095 2.78466 34.041C1.96473 33.2923 1.25176 32.7041 1.21611 32.7576C0.913093 33.0606 3.46199 38.0336 4.92359 39.9765C8.96973 45.3951 14.9587 48.9422 21.6429 49.9225C26.7407 50.6533 32.7653 49.5126 37.1858 46.9637L38.4692 46.2329L40.6259 46.8033C41.8023 47.1241 43.2818 47.5162 43.9234 47.6945C44.5651 47.8549 46.2941 48.3183 47.7913 48.7283C50.8037 49.5482 50.875 49.5482 50.875 49.2274C50.875 49.0313 47.827 41.1351 47.1318 39.5665C46.5436 38.2297 46.5436 38.1584 47.3101 36.4116C47.72 35.5026 48.2013 34.344 48.3795 33.8627C48.5578 33.3636 48.8251 32.6863 48.9856 32.3298C49.1282 31.9733 49.4312 30.8147 49.6451 29.7453C50.5898 25.1466 49.8946 19.1397 47.9518 14.9867C45.3137 9.35413 41.8914 5.77142 36.4015 2.86604C34.2804 1.7431 32.6227 1.11924 30.2877 0.602337C28.131 0.121075 22.9084 -0.0215187 20.8408 0.352795Z" fill="#7A67ED"/>
</svg>
