<svg width="" height="" viewBox="0 0 52 62" fill="none" xmlns="http://www.w3.org/2000/svg">
<path d="M50.9358 16.3213C50.9053 14.7148 50.8761 13.1971 50.8761 11.7289C50.8761 10.5786 49.9438 9.64605 48.7933 9.64605C39.8858 9.64605 33.1039 7.08614 27.4509 1.58975C26.6422 0.803279 25.3553 0.803556 24.5469 1.58975C18.8944 7.08614 12.1136 9.64605 3.20672 9.64605C2.05645 9.64605 1.12391 10.5786 1.12391 11.7289C1.12391 13.1974 1.09502 14.7156 1.0642 16.3224C0.778715 31.2731 0.387704 51.7488 25.3167 60.3897C25.5378 60.4663 25.7683 60.5046 25.9988 60.5046C26.2293 60.5046 26.46 60.4663 26.6808 60.3897C51.6118 51.7485 51.2213 31.2723 50.9358 16.3213ZM25.999 56.2116C4.61914 48.4449 4.94239 31.4311 5.22926 16.4019C5.24648 15.4999 5.26314 14.6256 5.27481 13.7686C13.6172 13.4165 20.2883 10.8885 25.999 5.91366C31.7104 10.8885 38.3826 13.4168 46.7255 13.7686C46.7372 14.6254 46.7538 15.499 46.771 16.4005C47.0576 31.4303 47.3806 48.4446 25.999 56.2116Z" fill="#00B884" stroke="#00B884" stroke-width="2"/>
<path d="M33.1714 23.5171L23.1186 33.5693L18.8289 29.2796C18.0155 28.4665 16.6966 28.4665 15.8835 29.2796C15.0701 30.0933 15.0701 31.4118 15.8835 32.2252L21.6459 37.9877C22.0525 38.3942 22.5857 38.5975 23.1186 38.5975C23.6515 38.5975 24.1847 38.3942 24.5913 37.9877L36.1165 26.4628C36.9301 25.6494 36.9301 24.3305 36.1167 23.5174C35.3036 22.704 33.9848 22.7037 33.1714 23.5171Z" fill="#00B884"/>
</svg>
