<svg width="" height="" viewBox="0 0 50 47" fill="none" xmlns="http://www.w3.org/2000/svg">
<path d="M7.03521 0.0867577C5.74933 0.26535 4.48896 0.760315 3.4276 1.50531C2.85099 1.90842 1.89168 2.86773 1.48857 3.44434C0.692546 4.57204 0.192481 5.90894 0.0445025 7.28667C0.00368088 7.69999 -0.00652453 11.8638 0.00368089 23.5592L0.0240917 39.2755L0.136351 39.7807C0.422103 41.087 0.922168 42.1892 1.68247 43.1791C1.97843 43.5669 2.71322 44.3221 3.08061 44.613C4.10115 45.4192 5.46358 46.0213 6.75456 46.2407C7.36178 46.3428 7.47915 46.3428 23.3894 46.3275L39.4119 46.3173L39.9477 46.1795C40.7131 45.9907 41.0703 45.8631 41.7183 45.5519C44.0043 44.4599 45.5964 42.4341 46.1832 39.8726C46.2954 39.3827 46.2954 39.3266 46.3107 34.1473C46.3312 29.0089 46.3261 28.917 46.224 28.5803C45.9331 27.621 45.0759 26.9372 44.0809 26.8658C42.9072 26.7841 41.902 27.4883 41.5601 28.6313C41.4887 28.8762 41.4785 29.4171 41.4785 33.3666V37.8162L41.3254 38.2346C40.759 39.7858 39.7385 40.8013 38.1719 41.3626L37.7994 41.4952H23.1904H8.58133L8.25476 41.3881C7.53017 41.1482 6.84641 40.7604 6.33614 40.3012C5.79525 39.8113 5.25947 38.9745 4.99413 38.2091C4.89207 37.908 4.89207 37.8264 4.89207 23.1714V8.42968L5.01964 8.09801C5.56563 6.63863 6.51473 5.66912 7.97411 5.0772L8.38743 4.90881H12.1124C14.2708 4.90881 15.9854 4.8833 16.1946 4.85779C16.863 4.76084 17.5417 4.32711 17.904 3.7505C18.1795 3.32187 18.2765 2.92896 18.251 2.34215C18.2357 1.8676 18.2152 1.78596 18.0469 1.42366C17.7101 0.724594 17.0467 0.193913 16.3272 0.0612411C15.8935 -0.020401 7.64754 0.00511169 7.03521 0.0867577Z" fill="#7B68EE"/>
<path d="M34.8557 0.449104C34.2995 1.01551 34.0648 1.44924 34.075 1.89317C34.075 2.05136 34.0903 2.78104 34.1056 3.51583L34.1362 4.85274L33.9168 4.87825C33.7943 4.89356 33.4575 4.92928 33.1616 4.965C27.9007 5.5212 22.0377 8.89408 17.879 13.7621C14.2407 18.0177 12.1946 22.9367 12.1895 27.4424C12.1895 29.0345 12.4956 31.2592 12.8936 32.5911L12.9855 32.8972L13.1335 32.4635C14.0928 29.5651 16.0165 26.6056 18.6495 23.9726C21.8948 20.7273 25.7627 18.4412 29.5642 17.5126C30.9776 17.1707 31.9114 17.0533 33.2738 17.0533H34.1362L34.1107 18.4157C34.0903 19.1709 34.0801 19.9057 34.075 20.0588C34.0699 20.5232 34.4321 21.1151 35.0802 21.7121L35.2945 21.9009L35.9987 21.9264C36.3865 21.9417 36.9019 21.9264 37.1417 21.8958C37.407 21.8652 37.6264 21.8652 37.703 21.8907C37.8101 21.9315 37.9326 21.8499 38.8001 21.1661C39.3307 20.7375 41.8464 18.7525 44.3875 16.7472C46.9236 14.7418 49.1126 12.9865 49.2402 12.8538C49.6892 12.3945 49.9954 11.6189 50.0005 10.9505C50.0005 10.6086 49.8321 9.96565 49.6586 9.63908C49.4188 9.20025 49.0361 8.85837 46.9389 7.20509C45.8316 6.33253 43.3364 4.36288 41.3973 2.83207L37.8765 0.0510941L36.5855 0.0255814L35.2996 6.86646e-05L34.8557 0.449104Z" fill="#7B68EE"/>
</svg>
