<svg width="" height="" viewBox="0 0 228 228" fill="none" xmlns="http://www.w3.org/2000/svg">
<g filter="url(#filter0_f_622_1532)">
<rect x="25" y="25" width="178" height="178" rx="15" fill="#5A9FFF" fill-opacity="0.54"/>
</g>
<g clip-path="url(#clip0_622_1532)">
<path d="M193 25H35C29.4772 25 25 29.4772 25 35V193C25 198.523 29.4772 203 35 203H193C198.523 203 203 198.523 203 193V35C203 29.4772 198.523 25 193 25Z" fill="white"/>
<g filter="url(#filter1_d_622_1532)">
<path d="M184 34H44C41.2386 34 39 36.2386 39 39V66C39 68.7614 41.2386 71 44 71H184C186.761 71 189 68.7614 189 66V39C189 36.2386 186.761 34 184 34Z" fill="#FBFBFB"/>
</g>
<path d="M86.8173 46.3636V58H85.4082V46.3636H86.8173ZM90.8017 52.75V58H89.4607V49.2727H90.7562V50.6364H90.8698C91.0744 50.1932 91.385 49.8371 91.8017 49.5682C92.2183 49.2955 92.7562 49.1591 93.4153 49.1591C94.0062 49.1591 94.5232 49.2803 94.9664 49.5227C95.4096 49.7614 95.7543 50.125 96.0005 50.6136C96.2467 51.0985 96.3698 51.7121 96.3698 52.4545V58H95.0289V52.5455C95.0289 51.8598 94.8509 51.3258 94.4948 50.9432C94.1388 50.5568 93.6501 50.3636 93.0289 50.3636C92.6009 50.3636 92.2183 50.4564 91.8812 50.642C91.5479 50.8277 91.2846 51.0985 91.0914 51.4545C90.8982 51.8106 90.8017 52.2424 90.8017 52.75ZM103.502 58V46.3636H107.434C108.347 46.3636 109.093 46.5284 109.672 46.858C110.256 47.1837 110.688 47.625 110.968 48.1818C111.248 48.7386 111.388 49.3598 111.388 50.0455C111.388 50.7311 111.248 51.3542 110.968 51.9148C110.691 52.4754 110.263 52.9223 109.684 53.2557C109.104 53.5852 108.362 53.75 107.457 53.75H104.638V52.5H107.411C108.036 52.5 108.538 52.392 108.917 52.1761C109.296 51.9602 109.57 51.6686 109.741 51.3011C109.915 50.9299 110.002 50.5114 110.002 50.0455C110.002 49.5795 109.915 49.1629 109.741 48.7955C109.57 48.428 109.294 48.1402 108.911 47.9318C108.529 47.7197 108.021 47.6136 107.388 47.6136H104.911V58H103.502ZM113.476 58V49.2727H114.772V50.5909H114.863C115.022 50.1591 115.31 49.8087 115.726 49.5398C116.143 49.2708 116.613 49.1364 117.136 49.1364C117.234 49.1364 117.357 49.1383 117.505 49.142C117.653 49.1458 117.764 49.1515 117.84 49.1591V50.5227C117.795 50.5114 117.69 50.4943 117.528 50.4716C117.368 50.4451 117.2 50.4318 117.022 50.4318C116.598 50.4318 116.219 50.5208 115.886 50.6989C115.556 50.8731 115.295 51.1155 115.101 51.4261C114.912 51.733 114.817 52.0833 114.817 52.4773V58H113.476ZM122.709 58.1818C121.921 58.1818 121.23 57.9943 120.636 57.6193C120.045 57.2443 119.582 56.7197 119.249 56.0455C118.92 55.3712 118.755 54.5833 118.755 53.6818C118.755 52.7727 118.92 51.9792 119.249 51.3011C119.582 50.6231 120.045 50.0966 120.636 49.7216C121.23 49.3466 121.921 49.1591 122.709 49.1591C123.497 49.1591 124.187 49.3466 124.778 49.7216C125.372 50.0966 125.834 50.6231 126.164 51.3011C126.497 51.9792 126.664 52.7727 126.664 53.6818C126.664 54.5833 126.497 55.3712 126.164 56.0455C125.834 56.7197 125.372 57.2443 124.778 57.6193C124.187 57.9943 123.497 58.1818 122.709 58.1818ZM122.709 56.9773C123.308 56.9773 123.8 56.8239 124.187 56.517C124.573 56.2102 124.859 55.8068 125.044 55.3068C125.23 54.8068 125.323 54.2652 125.323 53.6818C125.323 53.0985 125.23 52.5549 125.044 52.0511C124.859 51.5473 124.573 51.1402 124.187 50.8295C123.8 50.5189 123.308 50.3636 122.709 50.3636C122.111 50.3636 121.618 50.5189 121.232 50.8295C120.846 51.1402 120.56 51.5473 120.374 52.0511C120.189 52.5549 120.096 53.0985 120.096 53.6818C120.096 54.2652 120.189 54.8068 120.374 55.3068C120.56 55.8068 120.846 56.2102 121.232 56.517C121.618 56.8239 122.111 56.9773 122.709 56.9773ZM132.233 61.4545C131.586 61.4545 131.029 61.3712 130.563 61.2045C130.097 61.0417 129.709 60.8258 129.398 60.5568C129.091 60.2917 128.847 60.0076 128.665 59.7045L129.733 58.9545C129.855 59.1136 130.008 59.2955 130.194 59.5C130.379 59.7083 130.633 59.8883 130.955 60.0398C131.281 60.1951 131.707 60.2727 132.233 60.2727C132.938 60.2727 133.519 60.1023 133.978 59.7614C134.436 59.4205 134.665 58.8864 134.665 58.1591V56.3864H134.552C134.453 56.5455 134.313 56.7424 134.131 56.9773C133.953 57.2083 133.695 57.4148 133.358 57.5966C133.025 57.7746 132.574 57.8636 132.006 57.8636C131.302 57.8636 130.669 57.697 130.108 57.3636C129.552 57.0303 129.11 56.5455 128.785 55.9091C128.463 55.2727 128.302 54.5 128.302 53.5909C128.302 52.697 128.459 51.9186 128.773 51.2557C129.088 50.589 129.525 50.0739 130.086 49.7102C130.646 49.3428 131.294 49.1591 132.029 49.1591C132.597 49.1591 133.048 49.2538 133.381 49.4432C133.718 49.6288 133.976 49.8409 134.154 50.0795C134.336 50.3144 134.476 50.5076 134.574 50.6591H134.711V49.2727H136.006V58.25C136.006 59 135.836 59.6098 135.495 60.0795C135.158 60.553 134.703 60.8996 134.131 61.1193C133.563 61.3428 132.93 61.4545 132.233 61.4545ZM132.188 56.6591C132.726 56.6591 133.18 56.536 133.552 56.2898C133.923 56.0436 134.205 55.6894 134.398 55.2273C134.591 54.7652 134.688 54.2121 134.688 53.5682C134.688 52.9394 134.593 52.3845 134.404 51.9034C134.214 51.4223 133.934 51.0455 133.563 50.7727C133.192 50.5 132.733 50.3636 132.188 50.3636C131.62 50.3636 131.146 50.5076 130.767 50.7955C130.392 51.0833 130.11 51.4697 129.921 51.9545C129.735 52.4394 129.642 52.9773 129.642 53.5682C129.642 54.1742 129.737 54.7102 129.927 55.1761C130.12 55.6383 130.404 56.0019 130.779 56.267C131.158 56.5284 131.627 56.6591 132.188 56.6591ZM138.461 58V49.2727H139.756V50.5909H139.847C140.006 50.1591 140.294 49.8087 140.711 49.5398C141.127 49.2708 141.597 49.1364 142.12 49.1364C142.218 49.1364 142.341 49.1383 142.489 49.142C142.637 49.1458 142.749 49.1515 142.824 49.1591V50.5227C142.779 50.5114 142.675 50.4943 142.512 50.4716C142.353 50.4451 142.184 50.4318 142.006 50.4318C141.582 50.4318 141.203 50.5208 140.87 50.6989C140.54 50.8731 140.279 51.1155 140.086 51.4261C139.896 51.733 139.802 52.0833 139.802 52.4773V58H138.461ZM147.807 58.1818C146.966 58.1818 146.241 57.9962 145.631 57.625C145.025 57.25 144.557 56.7273 144.228 56.0568C143.902 55.3826 143.739 54.5985 143.739 53.7045C143.739 52.8106 143.902 52.0227 144.228 51.3409C144.557 50.6553 145.016 50.1212 145.603 49.7386C146.194 49.3523 146.883 49.1591 147.671 49.1591C148.125 49.1591 148.574 49.2348 149.017 49.3864C149.461 49.5379 149.864 49.7841 150.228 50.125C150.591 50.4621 150.881 50.9091 151.097 51.4659C151.313 52.0227 151.421 52.7083 151.421 53.5227V54.0909H144.694V52.9318H150.057C150.057 52.4394 149.959 52 149.762 51.6136C149.569 51.2273 149.292 50.9223 148.932 50.6989C148.576 50.4754 148.156 50.3636 147.671 50.3636C147.137 50.3636 146.675 50.4962 146.285 50.7614C145.898 51.0227 145.601 51.3636 145.392 51.7841C145.184 52.2045 145.08 52.6553 145.08 53.1364V53.9091C145.08 54.5682 145.194 55.1269 145.421 55.5852C145.652 56.0398 145.972 56.3864 146.381 56.625C146.79 56.8598 147.266 56.9773 147.807 56.9773C148.16 56.9773 148.478 56.928 148.762 56.8295C149.05 56.7273 149.298 56.5758 149.506 56.375C149.714 56.1705 149.875 55.9167 149.989 55.6136L151.285 55.9773C151.148 56.4167 150.919 56.803 150.597 57.1364C150.275 57.4659 149.877 57.7235 149.404 57.9091C148.93 58.0909 148.398 58.1818 147.807 58.1818ZM159.642 51.2273L158.438 51.5682C158.362 51.3674 158.25 51.1723 158.103 50.983C157.959 50.7898 157.762 50.6307 157.512 50.5057C157.262 50.3807 156.942 50.3182 156.552 50.3182C156.017 50.3182 155.572 50.4413 155.216 50.6875C154.864 50.9299 154.688 51.2386 154.688 51.6136C154.688 51.947 154.809 52.2102 155.052 52.4034C155.294 52.5966 155.673 52.7576 156.188 52.8864L157.483 53.2045C158.264 53.3939 158.845 53.6837 159.228 54.0739C159.61 54.4602 159.802 54.9583 159.802 55.5682C159.802 56.0682 159.658 56.5152 159.37 56.9091C159.086 57.303 158.688 57.6136 158.177 57.8409C157.665 58.0682 157.07 58.1818 156.392 58.1818C155.502 58.1818 154.766 57.9886 154.182 57.6023C153.599 57.2159 153.23 56.6515 153.074 55.9091L154.347 55.5909C154.468 56.0606 154.697 56.4129 155.035 56.6477C155.375 56.8826 155.82 57 156.37 57C156.995 57 157.491 56.8674 157.858 56.6023C158.23 56.3333 158.415 56.0114 158.415 55.6364C158.415 55.3333 158.309 55.0795 158.097 54.875C157.885 54.6667 157.559 54.5114 157.12 54.4091L155.665 54.0682C154.866 53.8788 154.279 53.5852 153.904 53.1875C153.533 52.786 153.347 52.2841 153.347 51.6818C153.347 51.1894 153.485 50.7538 153.762 50.375C154.042 49.9962 154.423 49.6989 154.904 49.483C155.389 49.267 155.938 49.1591 156.552 49.1591C157.415 49.1591 158.093 49.3485 158.586 49.7273C159.082 50.1061 159.434 50.6061 159.642 51.2273ZM168.002 51.2273L166.797 51.5682C166.722 51.3674 166.61 51.1723 166.462 50.983C166.318 50.7898 166.121 50.6307 165.871 50.5057C165.621 50.3807 165.301 50.3182 164.911 50.3182C164.377 50.3182 163.932 50.4413 163.576 50.6875C163.223 50.9299 163.047 51.2386 163.047 51.6136C163.047 51.947 163.169 52.2102 163.411 52.4034C163.653 52.5966 164.032 52.7576 164.547 52.8864L165.843 53.2045C166.623 53.3939 167.204 53.6837 167.587 54.0739C167.97 54.4602 168.161 54.9583 168.161 55.5682C168.161 56.0682 168.017 56.5152 167.729 56.9091C167.445 57.303 167.047 57.6136 166.536 57.8409C166.025 58.0682 165.43 58.1818 164.752 58.1818C163.862 58.1818 163.125 57.9886 162.542 57.6023C161.958 57.2159 161.589 56.6515 161.434 55.9091L162.706 55.5909C162.828 56.0606 163.057 56.4129 163.394 56.6477C163.735 56.8826 164.18 57 164.729 57C165.354 57 165.85 56.8674 166.218 56.6023C166.589 56.3333 166.775 56.0114 166.775 55.6364C166.775 55.3333 166.669 55.0795 166.456 54.875C166.244 54.6667 165.919 54.5114 165.479 54.4091L164.025 54.0682C163.225 53.8788 162.638 53.5852 162.263 53.1875C161.892 52.786 161.706 52.2841 161.706 51.6818C161.706 51.1894 161.845 50.7538 162.121 50.375C162.401 49.9962 162.782 49.6989 163.263 49.483C163.748 49.267 164.297 49.1591 164.911 49.1591C165.775 49.1591 166.453 49.3485 166.945 49.7273C167.441 50.1061 167.794 50.6061 168.002 51.2273Z" fill="#404040"/>
<path d="M87.8173 87.3636V99H86.4082V87.3636H87.8173ZM91.8017 93.75V99H90.4607V90.2727H91.7562V91.6364H91.8698C92.0744 91.1932 92.385 90.8371 92.8017 90.5682C93.2183 90.2955 93.7562 90.1591 94.4153 90.1591C95.0062 90.1591 95.5232 90.2803 95.9664 90.5227C96.4096 90.7614 96.7543 91.125 97.0005 91.6136C97.2467 92.0985 97.3698 92.7121 97.3698 93.4545V99H96.0289V93.5455C96.0289 92.8598 95.8509 92.3258 95.4948 91.9432C95.1388 91.5568 94.6501 91.3636 94.0289 91.3636C93.6009 91.3636 93.2183 91.4564 92.8812 91.642C92.5479 91.8277 92.2846 92.0985 92.0914 92.4545C91.8982 92.8106 91.8017 93.2424 91.8017 93.75ZM108.729 95.3636H110.275L111.57 97.0682L111.911 97.5227L113.843 100.091H112.297L111.025 98.3864L110.707 97.9545L108.729 95.3636ZM114.32 93.1818C114.32 94.4091 114.099 95.4697 113.655 96.3636C113.212 97.2576 112.604 97.947 111.832 98.4318C111.059 98.9167 110.176 99.1591 109.184 99.1591C108.191 99.1591 107.309 98.9167 106.536 98.4318C105.763 97.947 105.155 97.2576 104.712 96.3636C104.269 95.4697 104.047 94.4091 104.047 93.1818C104.047 91.9545 104.269 90.8939 104.712 90C105.155 89.1061 105.763 88.4167 106.536 87.9318C107.309 87.447 108.191 87.2045 109.184 87.2045C110.176 87.2045 111.059 87.447 111.832 87.9318C112.604 88.4167 113.212 89.1061 113.655 90C114.099 90.8939 114.32 91.9545 114.32 93.1818ZM112.957 93.1818C112.957 92.1742 112.788 91.3239 112.451 90.6307C112.118 89.9375 111.665 89.4129 111.093 89.0568C110.525 88.7008 109.888 88.5227 109.184 88.5227C108.479 88.5227 107.841 88.7008 107.269 89.0568C106.701 89.4129 106.248 89.9375 105.911 90.6307C105.578 91.3239 105.411 92.1742 105.411 93.1818C105.411 94.1894 105.578 95.0398 105.911 95.733C106.248 96.4261 106.701 96.9508 107.269 97.3068C107.841 97.6629 108.479 97.8409 109.184 97.8409C109.888 97.8409 110.525 97.6629 111.093 97.3068C111.665 96.9508 112.118 96.4261 112.451 95.733C112.788 95.0398 112.957 94.1894 112.957 93.1818ZM122.008 95.4318V90.2727H123.349V99H122.008V97.5227H121.917C121.712 97.9659 121.394 98.3428 120.962 98.6534C120.53 98.9602 119.985 99.1136 119.326 99.1136C118.78 99.1136 118.296 98.9943 117.871 98.7557C117.447 98.5133 117.114 98.1496 116.871 97.6648C116.629 97.1761 116.508 96.5606 116.508 95.8182V90.2727H117.849V95.7273C117.849 96.3636 118.027 96.8712 118.383 97.25C118.743 97.6288 119.201 97.8182 119.758 97.8182C120.091 97.8182 120.43 97.733 120.775 97.5625C121.123 97.392 121.415 97.1307 121.65 96.7784C121.888 96.4261 122.008 95.9773 122.008 95.4318ZM129.463 99.1818C128.623 99.1818 127.897 98.9962 127.287 98.625C126.681 98.25 126.213 97.7273 125.884 97.0568C125.558 96.3826 125.395 95.5985 125.395 94.7045C125.395 93.8106 125.558 93.0227 125.884 92.3409C126.213 91.6553 126.672 91.1212 127.259 90.7386C127.85 90.3523 128.539 90.1591 129.327 90.1591C129.782 90.1591 130.231 90.2348 130.674 90.3864C131.117 90.5379 131.52 90.7841 131.884 91.125C132.248 91.4621 132.537 91.9091 132.753 92.4659C132.969 93.0227 133.077 93.7083 133.077 94.5227V95.0909H126.35V93.9318H131.713C131.713 93.4394 131.615 93 131.418 92.6136C131.225 92.2273 130.948 91.9223 130.588 91.6989C130.232 91.4754 129.812 91.3636 129.327 91.3636C128.793 91.3636 128.331 91.4962 127.941 91.7614C127.554 92.0227 127.257 92.3636 127.049 92.7841C126.84 93.2045 126.736 93.6553 126.736 94.1364V94.9091C126.736 95.5682 126.85 96.1269 127.077 96.5852C127.308 97.0398 127.628 97.3864 128.037 97.625C128.446 97.8598 128.922 97.9773 129.463 97.9773C129.816 97.9773 130.134 97.928 130.418 97.8295C130.706 97.7273 130.954 97.5758 131.162 97.375C131.371 97.1705 131.532 96.9167 131.645 96.6136L132.941 96.9773C132.804 97.4167 132.575 97.803 132.253 98.1364C131.931 98.4659 131.534 98.7235 131.06 98.9091C130.587 99.0909 130.054 99.1818 129.463 99.1818ZM140.617 95.4318V90.2727H141.958V99H140.617V97.5227H140.526C140.321 97.9659 140.003 98.3428 139.571 98.6534C139.14 98.9602 138.594 99.1136 137.935 99.1136C137.39 99.1136 136.905 98.9943 136.481 98.7557C136.056 98.5133 135.723 98.1496 135.481 97.6648C135.238 97.1761 135.117 96.5606 135.117 95.8182V90.2727H136.458V95.7273C136.458 96.3636 136.636 96.8712 136.992 97.25C137.352 97.6288 137.81 97.8182 138.367 97.8182C138.7 97.8182 139.039 97.733 139.384 97.5625C139.732 97.392 140.024 97.1307 140.259 96.7784C140.498 96.4261 140.617 95.9773 140.617 95.4318ZM148.073 99.1818C147.232 99.1818 146.507 98.9962 145.897 98.625C145.291 98.25 144.823 97.7273 144.493 97.0568C144.168 96.3826 144.005 95.5985 144.005 94.7045C144.005 93.8106 144.168 93.0227 144.493 92.3409C144.823 91.6553 145.281 91.1212 145.868 90.7386C146.459 90.3523 147.149 90.1591 147.937 90.1591C148.391 90.1591 148.84 90.2348 149.283 90.3864C149.726 90.5379 150.13 90.7841 150.493 91.125C150.857 91.4621 151.147 91.9091 151.363 92.4659C151.579 93.0227 151.687 93.7083 151.687 94.5227V95.0909H144.959V93.9318H150.323C150.323 93.4394 150.224 93 150.027 92.6136C149.834 92.2273 149.558 91.9223 149.198 91.6989C148.842 91.4754 148.421 91.3636 147.937 91.3636C147.402 91.3636 146.94 91.4962 146.55 91.7614C146.164 92.0227 145.866 92.3636 145.658 92.7841C145.45 93.2045 145.346 93.6553 145.346 94.1364V94.9091C145.346 95.5682 145.459 96.1269 145.687 96.5852C145.918 97.0398 146.238 97.3864 146.647 97.625C147.056 97.8598 147.531 97.9773 148.073 97.9773C148.425 97.9773 148.743 97.928 149.027 97.8295C149.315 97.7273 149.563 97.5758 149.772 97.375C149.98 97.1705 150.141 96.9167 150.255 96.6136L151.55 96.9773C151.414 97.4167 151.185 97.803 150.863 98.1364C150.541 98.4659 150.143 98.7235 149.669 98.9091C149.196 99.0909 148.664 99.1818 148.073 99.1818Z" fill="#818386"/>
<path d="M63.5 58C66.5376 58 69 55.5376 69 52.5C69 49.4624 66.5376 47 63.5 47C60.4624 47 58 49.4624 58 52.5C58 55.5376 60.4624 58 63.5 58Z" fill="#5185FC"/>
<path d="M63.5 99C66.5376 99 69 96.5376 69 93.5C69 90.4624 66.5376 88 63.5 88C60.4624 88 58 90.4624 58 93.5C58 96.5376 60.4624 99 63.5 99Z" fill="#FC7150"/>
<path d="M95.7733 163H94.3642C94.2809 162.595 94.1351 162.239 93.9267 161.932C93.7222 161.625 93.4722 161.367 93.1767 161.159C92.8851 160.947 92.5612 160.788 92.2051 160.682C91.8491 160.576 91.4779 160.523 91.0915 160.523C90.387 160.523 89.7487 160.701 89.1767 161.057C88.6086 161.413 88.1559 161.938 87.8188 162.631C87.4854 163.324 87.3188 164.174 87.3188 165.182C87.3188 166.189 87.4854 167.04 87.8188 167.733C88.1559 168.426 88.6086 168.951 89.1767 169.307C89.7487 169.663 90.387 169.841 91.0915 169.841C91.4779 169.841 91.8491 169.788 92.2051 169.682C92.5612 169.576 92.8851 169.419 93.1767 169.21C93.4722 168.998 93.7222 168.739 93.9267 168.432C94.1351 168.121 94.2809 167.765 94.3642 167.364H95.7733C95.6673 167.958 95.4741 168.491 95.1938 168.96C94.9135 169.43 94.565 169.83 94.1483 170.159C93.7317 170.485 93.2639 170.733 92.7449 170.903C92.2298 171.074 91.6786 171.159 91.0915 171.159C90.0991 171.159 89.2165 170.917 88.4438 170.432C87.6711 169.947 87.0631 169.258 86.6199 168.364C86.1767 167.47 85.9551 166.409 85.9551 165.182C85.9551 163.955 86.1767 162.894 86.6199 162C87.0631 161.106 87.6711 160.417 88.4438 159.932C89.2165 159.447 90.0991 159.205 91.0915 159.205C91.6786 159.205 92.2298 159.29 92.7449 159.46C93.2639 159.631 93.7317 159.881 94.1483 160.21C94.565 160.536 94.9135 160.934 95.1938 161.403C95.4741 161.869 95.6673 162.402 95.7733 163ZM101.414 171.182C100.626 171.182 99.9348 170.994 99.3401 170.619C98.7492 170.244 98.2871 169.72 97.9537 169.045C97.6242 168.371 97.4594 167.583 97.4594 166.682C97.4594 165.773 97.6242 164.979 97.9537 164.301C98.2871 163.623 98.7492 163.097 99.3401 162.722C99.9348 162.347 100.626 162.159 101.414 162.159C102.202 162.159 102.891 162.347 103.482 162.722C104.077 163.097 104.539 163.623 104.868 164.301C105.202 164.979 105.368 165.773 105.368 166.682C105.368 167.583 105.202 168.371 104.868 169.045C104.539 169.72 104.077 170.244 103.482 170.619C102.891 170.994 102.202 171.182 101.414 171.182ZM101.414 169.977C102.012 169.977 102.505 169.824 102.891 169.517C103.278 169.21 103.564 168.807 103.749 168.307C103.935 167.807 104.028 167.265 104.028 166.682C104.028 166.098 103.935 165.555 103.749 165.051C103.564 164.547 103.278 164.14 102.891 163.83C102.505 163.519 102.012 163.364 101.414 163.364C100.815 163.364 100.323 163.519 99.9367 163.83C99.5503 164.14 99.2643 164.547 99.0787 165.051C98.8931 165.555 98.8003 166.098 98.8003 166.682C98.8003 167.265 98.8931 167.807 99.0787 168.307C99.2643 168.807 99.5503 169.21 99.9367 169.517C100.323 169.824 100.815 169.977 101.414 169.977ZM107.415 171V162.273H108.711V163.636H108.824C109.006 163.17 109.3 162.809 109.705 162.551C110.11 162.29 110.597 162.159 111.165 162.159C111.741 162.159 112.22 162.29 112.603 162.551C112.989 162.809 113.29 163.17 113.506 163.636H113.597C113.821 163.186 114.156 162.828 114.603 162.562C115.05 162.294 115.586 162.159 116.211 162.159C116.991 162.159 117.629 162.403 118.126 162.892C118.622 163.377 118.87 164.133 118.87 165.159V171H117.529V165.159C117.529 164.515 117.353 164.055 117.001 163.778C116.648 163.502 116.234 163.364 115.756 163.364C115.143 163.364 114.667 163.549 114.33 163.92C113.993 164.288 113.824 164.754 113.824 165.318V171H112.461V165.023C112.461 164.527 112.3 164.127 111.978 163.824C111.656 163.517 111.241 163.364 110.734 163.364C110.385 163.364 110.059 163.456 109.756 163.642C109.457 163.828 109.215 164.085 109.029 164.415C108.847 164.741 108.756 165.117 108.756 165.545V171H107.415ZM121.322 174.273V162.273H122.617V163.659H122.776C122.875 163.508 123.011 163.314 123.185 163.08C123.363 162.841 123.617 162.629 123.947 162.443C124.28 162.254 124.731 162.159 125.299 162.159C126.034 162.159 126.682 162.343 127.242 162.71C127.803 163.078 128.241 163.598 128.555 164.273C128.869 164.947 129.027 165.742 129.027 166.659C129.027 167.583 128.869 168.384 128.555 169.062C128.241 169.737 127.805 170.259 127.248 170.631C126.691 170.998 126.049 171.182 125.322 171.182C124.761 171.182 124.312 171.089 123.975 170.903C123.638 170.714 123.378 170.5 123.197 170.261C123.015 170.019 122.875 169.818 122.776 169.659H122.662V174.273H121.322ZM122.64 166.636C122.64 167.295 122.736 167.877 122.93 168.381C123.123 168.881 123.405 169.273 123.776 169.557C124.147 169.837 124.602 169.977 125.14 169.977C125.701 169.977 126.169 169.83 126.544 169.534C126.922 169.235 127.206 168.833 127.396 168.33C127.589 167.822 127.686 167.258 127.686 166.636C127.686 166.023 127.591 165.47 127.402 164.977C127.216 164.481 126.934 164.089 126.555 163.801C126.18 163.509 125.708 163.364 125.14 163.364C124.594 163.364 124.136 163.502 123.765 163.778C123.394 164.051 123.113 164.434 122.924 164.926C122.734 165.415 122.64 165.985 122.64 166.636ZM132.413 159.364V171H131.072V159.364H132.413ZM138.528 171.182C137.687 171.182 136.962 170.996 136.352 170.625C135.746 170.25 135.278 169.727 134.948 169.057C134.623 168.383 134.46 167.598 134.46 166.705C134.46 165.811 134.623 165.023 134.948 164.341C135.278 163.655 135.736 163.121 136.323 162.739C136.914 162.352 137.604 162.159 138.392 162.159C138.846 162.159 139.295 162.235 139.738 162.386C140.181 162.538 140.585 162.784 140.948 163.125C141.312 163.462 141.602 163.909 141.818 164.466C142.034 165.023 142.142 165.708 142.142 166.523V167.091H135.414V165.932H140.778C140.778 165.439 140.68 165 140.483 164.614C140.289 164.227 140.013 163.922 139.653 163.699C139.297 163.475 138.876 163.364 138.392 163.364C137.858 163.364 137.395 163.496 137.005 163.761C136.619 164.023 136.322 164.364 136.113 164.784C135.905 165.205 135.801 165.655 135.801 166.136V166.909C135.801 167.568 135.914 168.127 136.142 168.585C136.373 169.04 136.693 169.386 137.102 169.625C137.511 169.86 137.986 169.977 138.528 169.977C138.88 169.977 139.198 169.928 139.483 169.83C139.77 169.727 140.019 169.576 140.227 169.375C140.435 169.17 140.596 168.917 140.71 168.614L142.005 168.977C141.869 169.417 141.64 169.803 141.318 170.136C140.996 170.466 140.598 170.723 140.125 170.909C139.651 171.091 139.119 171.182 138.528 171.182ZM147.977 162.273V163.409H143.454V162.273H147.977ZM144.772 160.182H146.113V168.5C146.113 168.879 146.168 169.163 146.278 169.352C146.392 169.538 146.536 169.663 146.71 169.727C146.888 169.788 147.075 169.818 147.272 169.818C147.42 169.818 147.541 169.811 147.636 169.795C147.731 169.777 147.806 169.761 147.863 169.75L148.136 170.955C148.045 170.989 147.918 171.023 147.755 171.057C147.592 171.095 147.386 171.114 147.136 171.114C146.757 171.114 146.386 171.032 146.022 170.869C145.662 170.706 145.363 170.458 145.125 170.125C144.89 169.792 144.772 169.371 144.772 168.864V160.182ZM153.559 171.182C152.718 171.182 151.993 170.996 151.383 170.625C150.777 170.25 150.309 169.727 149.98 169.057C149.654 168.383 149.491 167.598 149.491 166.705C149.491 165.811 149.654 165.023 149.98 164.341C150.309 163.655 150.768 163.121 151.355 162.739C151.946 162.352 152.635 162.159 153.423 162.159C153.877 162.159 154.326 162.235 154.769 162.386C155.213 162.538 155.616 162.784 155.98 163.125C156.343 163.462 156.633 163.909 156.849 164.466C157.065 165.023 157.173 165.708 157.173 166.523V167.091H150.446V165.932H155.809C155.809 165.439 155.711 165 155.514 164.614C155.321 164.227 155.044 163.922 154.684 163.699C154.328 163.475 153.908 163.364 153.423 163.364C152.889 163.364 152.427 163.496 152.037 163.761C151.65 164.023 151.353 164.364 151.144 164.784C150.936 165.205 150.832 165.655 150.832 166.136V166.909C150.832 167.568 150.946 168.127 151.173 168.585C151.404 169.04 151.724 169.386 152.133 169.625C152.542 169.86 153.018 169.977 153.559 169.977C153.912 169.977 154.23 169.928 154.514 169.83C154.802 169.727 155.05 169.576 155.258 169.375C155.466 169.17 155.627 168.917 155.741 168.614L157.037 168.977C156.9 169.417 156.671 169.803 156.349 170.136C156.027 170.466 155.629 170.723 155.156 170.909C154.682 171.091 154.15 171.182 153.559 171.182ZM162.508 171.182C161.781 171.182 161.139 170.998 160.582 170.631C160.025 170.259 159.59 169.737 159.275 169.062C158.961 168.384 158.804 167.583 158.804 166.659C158.804 165.742 158.961 164.947 159.275 164.273C159.59 163.598 160.027 163.078 160.588 162.71C161.148 162.343 161.796 162.159 162.531 162.159C163.099 162.159 163.548 162.254 163.877 162.443C164.211 162.629 164.465 162.841 164.639 163.08C164.817 163.314 164.955 163.508 165.054 163.659H165.167V159.364H166.508V171H165.213V169.659H165.054C164.955 169.818 164.815 170.019 164.633 170.261C164.451 170.5 164.192 170.714 163.855 170.903C163.518 171.089 163.069 171.182 162.508 171.182ZM162.69 169.977C163.228 169.977 163.682 169.837 164.054 169.557C164.425 169.273 164.707 168.881 164.9 168.381C165.093 167.877 165.19 167.295 165.19 166.636C165.19 165.985 165.095 165.415 164.906 164.926C164.716 164.434 164.436 164.051 164.065 163.778C163.694 163.502 163.235 163.364 162.69 163.364C162.122 163.364 161.648 163.509 161.269 163.801C160.894 164.089 160.612 164.481 160.423 164.977C160.237 165.47 160.144 166.023 160.144 166.636C160.144 167.258 160.239 167.822 160.429 168.33C160.622 168.833 160.906 169.235 161.281 169.534C161.66 169.83 162.129 169.977 162.69 169.977Z" fill="#818386"/>
<path d="M63.5 171C66.5376 171 69 168.538 69 165.5C69 162.462 66.5376 160 63.5 160C60.4624 160 58 162.462 58 165.5C58 168.538 60.4624 171 63.5 171Z" fill="#4DD778"/>
<path d="M95.7733 127H94.3642C94.2809 126.595 94.1351 126.239 93.9267 125.932C93.7222 125.625 93.4722 125.367 93.1767 125.159C92.8851 124.947 92.5612 124.788 92.2051 124.682C91.8491 124.576 91.4779 124.523 91.0915 124.523C90.387 124.523 89.7487 124.701 89.1767 125.057C88.6086 125.413 88.1559 125.938 87.8188 126.631C87.4854 127.324 87.3188 128.174 87.3188 129.182C87.3188 130.189 87.4854 131.04 87.8188 131.733C88.1559 132.426 88.6086 132.951 89.1767 133.307C89.7487 133.663 90.387 133.841 91.0915 133.841C91.4779 133.841 91.8491 133.788 92.2051 133.682C92.5612 133.576 92.8851 133.419 93.1767 133.21C93.4722 132.998 93.7222 132.739 93.9267 132.432C94.1351 132.121 94.2809 131.765 94.3642 131.364H95.7733C95.6673 131.958 95.4741 132.491 95.1938 132.96C94.9135 133.43 94.565 133.83 94.1483 134.159C93.7317 134.485 93.2639 134.733 92.7449 134.903C92.2298 135.074 91.6786 135.159 91.0915 135.159C90.0991 135.159 89.2165 134.917 88.4438 134.432C87.6711 133.947 87.0631 133.258 86.6199 132.364C86.1767 131.47 85.9551 130.409 85.9551 129.182C85.9551 127.955 86.1767 126.894 86.6199 126C87.0631 125.106 87.6711 124.417 88.4438 123.932C89.2165 123.447 90.0991 123.204 91.0915 123.204C91.6786 123.204 92.2298 123.29 92.7449 123.46C93.2639 123.631 93.7317 123.881 94.1483 124.21C94.565 124.536 94.9135 124.934 95.1938 125.403C95.4741 125.869 95.6673 126.402 95.7733 127ZM100.437 135.205C99.8836 135.205 99.3818 135.1 98.931 134.892C98.4802 134.68 98.1223 134.375 97.8571 133.977C97.592 133.576 97.4594 133.091 97.4594 132.523C97.4594 132.023 97.5579 131.617 97.7549 131.307C97.9518 130.992 98.2151 130.746 98.5446 130.568C98.8742 130.39 99.2378 130.258 99.6355 130.17C100.037 130.08 100.44 130.008 100.846 129.955C101.376 129.886 101.806 129.835 102.135 129.801C102.469 129.763 102.711 129.701 102.863 129.614C103.018 129.527 103.096 129.375 103.096 129.159V129.114C103.096 128.553 102.942 128.117 102.635 127.807C102.332 127.496 101.872 127.341 101.255 127.341C100.615 127.341 100.113 127.481 99.7492 127.761C99.3855 128.042 99.1299 128.341 98.9821 128.659L97.7094 128.205C97.9367 127.674 98.2397 127.261 98.6185 126.966C99.0011 126.667 99.4177 126.458 99.8685 126.341C100.323 126.22 100.77 126.159 101.209 126.159C101.49 126.159 101.812 126.193 102.175 126.261C102.543 126.326 102.897 126.46 103.238 126.665C103.582 126.869 103.868 127.178 104.096 127.591C104.323 128.004 104.437 128.557 104.437 129.25V135H103.096V133.818H103.028C102.937 134.008 102.785 134.21 102.573 134.426C102.361 134.642 102.079 134.826 101.726 134.977C101.374 135.129 100.944 135.205 100.437 135.205ZM100.641 134C101.171 134 101.618 133.896 101.982 133.688C102.35 133.479 102.626 133.21 102.812 132.881C103.001 132.551 103.096 132.205 103.096 131.841V130.614C103.039 130.682 102.914 130.744 102.721 130.801C102.531 130.854 102.312 130.902 102.062 130.943C101.815 130.981 101.575 131.015 101.34 131.045C101.109 131.072 100.921 131.095 100.778 131.114C100.429 131.159 100.103 131.233 99.8003 131.335C99.5011 131.434 99.2586 131.583 99.073 131.784C98.8912 131.981 98.8003 132.25 98.8003 132.591C98.8003 133.057 98.9727 133.409 99.3174 133.648C99.6658 133.883 100.107 134 100.641 134ZM108.225 129.75V135H106.884V126.273H108.18V127.636H108.293C108.498 127.193 108.808 126.837 109.225 126.568C109.642 126.295 110.18 126.159 110.839 126.159C111.43 126.159 111.947 126.28 112.39 126.523C112.833 126.761 113.178 127.125 113.424 127.614C113.67 128.098 113.793 128.712 113.793 129.455V135H112.452V129.545C112.452 128.86 112.274 128.326 111.918 127.943C111.562 127.557 111.073 127.364 110.452 127.364C110.024 127.364 109.642 127.456 109.305 127.642C108.971 127.828 108.708 128.098 108.515 128.455C108.322 128.811 108.225 129.242 108.225 129.75ZM119.789 135.182C118.971 135.182 118.266 134.989 117.675 134.602C117.084 134.216 116.63 133.684 116.312 133.006C115.993 132.328 115.834 131.553 115.834 130.682C115.834 129.795 115.997 129.013 116.323 128.335C116.653 127.653 117.111 127.121 117.698 126.739C118.289 126.352 118.978 126.159 119.766 126.159C120.38 126.159 120.933 126.273 121.425 126.5C121.918 126.727 122.321 127.045 122.635 127.455C122.95 127.864 123.145 128.341 123.221 128.886H121.88C121.778 128.489 121.55 128.136 121.198 127.83C120.85 127.519 120.38 127.364 119.789 127.364C119.266 127.364 118.808 127.5 118.414 127.773C118.024 128.042 117.719 128.422 117.499 128.915C117.283 129.403 117.175 129.977 117.175 130.636C117.175 131.311 117.281 131.898 117.493 132.398C117.709 132.898 118.012 133.286 118.403 133.562C118.796 133.839 119.259 133.977 119.789 133.977C120.137 133.977 120.454 133.917 120.738 133.795C121.022 133.674 121.262 133.5 121.459 133.273C121.656 133.045 121.796 132.773 121.88 132.455H123.221C123.145 132.97 122.957 133.434 122.658 133.847C122.363 134.256 121.971 134.581 121.482 134.824C120.997 135.062 120.433 135.182 119.789 135.182ZM128.84 135.182C128 135.182 127.274 134.996 126.664 134.625C126.058 134.25 125.59 133.727 125.261 133.057C124.935 132.383 124.772 131.598 124.772 130.705C124.772 129.811 124.935 129.023 125.261 128.341C125.59 127.655 126.049 127.121 126.636 126.739C127.227 126.352 127.916 126.159 128.704 126.159C129.159 126.159 129.608 126.235 130.051 126.386C130.494 126.538 130.897 126.784 131.261 127.125C131.625 127.462 131.914 127.909 132.13 128.466C132.346 129.023 132.454 129.708 132.454 130.523V131.091H125.727V129.932H131.09C131.09 129.439 130.992 129 130.795 128.614C130.602 128.227 130.325 127.922 129.965 127.699C129.609 127.475 129.189 127.364 128.704 127.364C128.17 127.364 127.708 127.496 127.318 127.761C126.931 128.023 126.634 128.364 126.426 128.784C126.217 129.205 126.113 129.655 126.113 130.136V130.909C126.113 131.568 126.227 132.127 126.454 132.585C126.685 133.04 127.005 133.386 127.414 133.625C127.823 133.86 128.299 133.977 128.84 133.977C129.193 133.977 129.511 133.928 129.795 133.83C130.083 133.727 130.331 133.576 130.539 133.375C130.748 133.17 130.909 132.917 131.022 132.614L132.318 132.977C132.181 133.417 131.952 133.803 131.63 134.136C131.308 134.466 130.911 134.723 130.437 134.909C129.964 135.091 129.431 135.182 128.84 135.182ZM135.835 123.364V135H134.494V123.364H135.835ZM139.632 123.364V135H138.291V123.364H139.632ZM145.747 135.182C144.906 135.182 144.18 134.996 143.571 134.625C142.965 134.25 142.497 133.727 142.167 133.057C141.841 132.383 141.679 131.598 141.679 130.705C141.679 129.811 141.841 129.023 142.167 128.341C142.497 127.655 142.955 127.121 143.542 126.739C144.133 126.352 144.822 126.159 145.61 126.159C146.065 126.159 146.514 126.235 146.957 126.386C147.4 126.538 147.804 126.784 148.167 127.125C148.531 127.462 148.821 127.909 149.037 128.466C149.252 129.023 149.36 129.708 149.36 130.523V131.091H142.633V129.932H147.997C147.997 129.439 147.898 129 147.701 128.614C147.508 128.227 147.232 127.922 146.872 127.699C146.516 127.475 146.095 127.364 145.61 127.364C145.076 127.364 144.614 127.496 144.224 127.761C143.838 128.023 143.54 128.364 143.332 128.784C143.124 129.205 143.019 129.655 143.019 130.136V130.909C143.019 131.568 143.133 132.127 143.36 132.585C143.591 133.04 143.912 133.386 144.321 133.625C144.73 133.86 145.205 133.977 145.747 133.977C146.099 133.977 146.417 133.928 146.701 133.83C146.989 133.727 147.237 133.576 147.446 133.375C147.654 133.17 147.815 132.917 147.929 132.614L149.224 132.977C149.088 133.417 148.858 133.803 148.537 134.136C148.215 134.466 147.817 134.723 147.343 134.909C146.87 135.091 146.338 135.182 145.747 135.182ZM154.696 135.182C153.968 135.182 153.326 134.998 152.769 134.631C152.213 134.259 151.777 133.737 151.463 133.062C151.148 132.384 150.991 131.583 150.991 130.659C150.991 129.742 151.148 128.947 151.463 128.273C151.777 127.598 152.215 127.078 152.775 126.71C153.336 126.343 153.983 126.159 154.718 126.159C155.287 126.159 155.735 126.254 156.065 126.443C156.398 126.629 156.652 126.841 156.826 127.08C157.004 127.314 157.143 127.508 157.241 127.659H157.355V123.364H158.696V135H157.4V133.659H157.241C157.143 133.818 157.002 134.019 156.821 134.261C156.639 134.5 156.379 134.714 156.042 134.903C155.705 135.089 155.256 135.182 154.696 135.182ZM154.877 133.977C155.415 133.977 155.87 133.837 156.241 133.557C156.612 133.273 156.894 132.881 157.088 132.381C157.281 131.877 157.377 131.295 157.377 130.636C157.377 129.985 157.283 129.415 157.093 128.926C156.904 128.434 156.624 128.051 156.252 127.778C155.881 127.502 155.423 127.364 154.877 127.364C154.309 127.364 153.836 127.509 153.457 127.801C153.082 128.089 152.8 128.481 152.61 128.977C152.425 129.47 152.332 130.023 152.332 130.636C152.332 131.258 152.427 131.822 152.616 132.33C152.809 132.833 153.093 133.235 153.468 133.534C153.847 133.83 154.317 133.977 154.877 133.977Z" fill="#818386"/>
<path d="M63.5 135C66.5376 135 69 132.538 69 129.5C69 126.462 66.5376 124 63.5 124C60.4624 124 58 126.462 58 129.5C58 132.538 60.4624 135 63.5 135Z" fill="#FF5B5B"/>
</g>
<defs>
<filter id="filter0_f_622_1532" x="0" y="0" width="228" height="228" filterUnits="userSpaceOnUse" color-interpolation-filters="sRGB">
<feFlood flood-opacity="0" result="BackgroundImageFix"/>
<feBlend mode="normal" in="SourceGraphic" in2="BackgroundImageFix" result="shape"/>
<feGaussianBlur stdDeviation="12.5" result="effect1_foregroundBlur_622_1532"/>
</filter>
<filter id="filter1_d_622_1532" x="33" y="28" width="162" height="49" filterUnits="userSpaceOnUse" color-interpolation-filters="sRGB">
<feFlood flood-opacity="0" result="BackgroundImageFix"/>
<feColorMatrix in="SourceAlpha" type="matrix" values="0 0 0 0 0 0 0 0 0 0 0 0 0 0 0 0 0 0 127 0" result="hardAlpha"/>
<feOffset/>
<feGaussianBlur stdDeviation="3"/>
<feComposite in2="hardAlpha" operator="out"/>
<feColorMatrix type="matrix" values="0 0 0 0 0 0 0 0 0 0 0 0 0 0 0 0 0 0 0.2 0"/>
<feBlend mode="normal" in2="BackgroundImageFix" result="effect1_dropShadow_622_1532"/>
<feBlend mode="normal" in="SourceGraphic" in2="effect1_dropShadow_622_1532" result="shape"/>
</filter>
<clipPath id="clip0_622_1532">
<rect x="25" y="25" width="178" height="178" rx="15" fill="white"/>
</clipPath>
</defs>
</svg>
