<svg width="" height="" viewBox="0 0 65 38" fill="none" xmlns="http://www.w3.org/2000/svg">
<path d="M28.6171 0.946594C28.1941 1.14185 27.8686 1.43473 27.8686 1.59744C27.8686 1.76015 27.5107 2.02049 27.0551 2.1832C25.5256 2.76896 25.1351 4.20082 25.1351 8.85436C25.1676 13.3127 25.1351 13.1499 27.1853 17.1201C27.9337 18.617 28.0314 19.1377 27.8361 20.2116C27.5758 21.7736 25.7209 23.5635 22.6293 25.3207C17.5202 28.217 17.325 28.3472 16.609 29.8441C16.0883 30.8529 15.7955 32.2197 15.6328 34.1397L15.4375 37.0034H32.4246H49.4442L49.2164 34.0095C48.8584 29.2909 48.3703 28.6726 42.9357 25.6787C39.4211 23.7587 37.3384 21.8713 36.9805 20.2767C36.7527 19.2028 36.8503 18.7472 37.6313 17.1852C39.5839 13.4428 39.6489 13.1499 39.8117 9.73301C39.9744 5.76285 39.6489 4.55878 38.0218 2.93167C36.1995 1.17439 34.6374 0.556087 31.7737 0.588631C30.4395 0.588631 29.0076 0.751343 28.6171 0.946594Z" fill="#00B884"/>
<path d="M11.2714 3.84286C9.0911 5.30727 8.92839 5.82794 9.05856 10.6442C9.15618 14.0611 9.28635 14.9398 9.80703 15.7208C10.8158 17.2177 11.5969 19.1052 11.5969 20.0164C11.5969 21.4808 8.89584 23.6611 3.78671 26.3621C2.02943 27.2733 1.02062 28.9329 0.727736 31.3736C0.532482 32.838 0.597567 33.1634 1.3135 33.977L2.09451 34.8882H8.21246H14.3304L14.7209 32.3499C15.3067 28.5099 16.0226 27.6638 20.3507 25.3858C21.5222 24.8001 22.5311 24.2143 22.5961 24.1492C22.6938 24.0842 22.0104 23.3357 21.0667 22.4896C19.6348 21.1879 19.407 20.8299 19.4395 19.8211C19.4395 19.1377 19.7975 17.9662 20.2206 17.1527C21.6524 14.4516 21.75 14.0611 21.9128 10.7418C22.0755 7.12963 21.8477 6.31608 20.1555 4.72151C18.8212 3.41982 17.0965 2.83406 14.786 2.83406C13.0287 2.83406 12.508 2.99677 11.2714 3.84286Z" fill="#00B884"/>
<path d="M44.8219 4.13569C43.9107 4.85162 43.1622 5.50246 43.1622 5.56755C43.1622 5.66517 42.8693 7.19466 42.5114 9.01702C42.1209 11.0672 41.8605 13.638 41.8605 15.8184C41.8605 18.4217 41.7304 19.4631 41.3399 20.0163C40.8517 20.7322 40.8843 20.7322 42.0232 20.7322C42.6415 20.7322 43.6829 20.5044 44.3012 20.2766C45.3426 19.8211 45.4402 19.8211 45.4402 20.3743C45.4402 20.6997 44.6917 21.676 43.7805 22.5221C42.8693 23.3682 42.186 24.0841 42.251 24.1492C42.3161 24.1817 43.5527 24.8326 45.0497 25.581C47.0022 26.5573 47.9785 27.2732 48.6944 28.2495C49.8334 29.8441 49.9636 30.2346 50.2564 32.838L50.4842 34.8881L56.1791 34.9532C62.3296 35.0508 63.2083 34.8881 63.8591 33.4237C64.3798 32.2847 63.8916 29.1607 63.013 27.9241C62.59 27.3058 61.1581 26.3295 59.4008 25.4183C56.2442 23.7912 53.2503 21.3505 53.2503 20.4068C53.2503 19.8536 53.3154 19.8211 54.1615 20.2766C54.6496 20.5044 55.7561 20.7322 56.6347 20.7322H58.2293L57.611 20.0488C57.0903 19.4631 56.9927 18.8122 56.9601 15.7207C56.9276 10.6116 56.0815 6.99941 54.5846 5.30721C52.99 3.54993 51.2978 2.834 48.6293 2.834C46.6117 2.834 46.3839 2.89908 44.8219 4.13569Z" fill="#00B884"/>
</svg>
