<svg width="25" height="25" viewBox="0 0 25 25" fill="none" xmlns="http://www.w3.org/2000/svg">
<g clip-path="url(#clip0_452_345)">
<path d="M4.58891 0.102529C2.63578 0.332021 0.926798 1.72362 0.272501 3.61815C-0.0107024 4.458 -0.00581954 4.23339 0.0137117 12.7197C0.0283601 20.0049 0.033243 20.5078 0.116251 20.8496C0.604532 22.8808 2.16215 24.3994 4.19828 24.8389C4.58891 24.9219 5.04301 24.9267 12.4991 24.9267C21.2979 24.9267 20.6778 24.9512 21.6397 24.5898C23.2559 23.9844 24.5157 22.5098 24.8868 20.7959C24.9698 20.4101 24.9747 19.9414 24.9747 12.5C24.9747 5.05858 24.9698 4.58983 24.8868 4.20409C24.5157 2.49022 23.2559 1.01561 21.6397 0.410146C20.6827 0.0537009 21.3614 0.078115 12.7188 0.0683494C8.44633 0.0634665 4.7891 0.078115 4.58891 0.102529ZM20.5313 2.04589C20.668 2.08007 20.9756 2.20214 21.2149 2.31933C22.1719 2.77831 22.875 3.70604 23.0411 4.73632C23.1143 5.17577 23.1143 19.8242 23.0411 20.2637C22.875 21.2891 22.1719 22.2217 21.2149 22.6807C20.9756 22.7978 20.6338 22.9248 20.458 22.959C19.9893 23.0517 5.00883 23.0517 4.54008 22.959C4.3643 22.9248 4.02738 22.7978 3.78324 22.6807C2.82621 22.2217 2.12309 21.2891 1.95707 20.2637C1.88383 19.8242 1.88383 5.17577 1.95707 4.73632C2.19145 3.27147 3.38285 2.17772 4.95512 1.98241C5.03813 1.97265 8.51957 1.96776 12.6944 1.97265C18.6709 1.98241 20.3409 1.99706 20.5313 2.04589Z" fill="url(#paint0_linear_452_345)"/>
<path d="M17.3428 5.13183C16.9864 5.19042 16.4297 5.41503 16.083 5.63964C15.8926 5.76171 14.2862 7.33397 11.2979 10.3223C6.5176 15.1025 6.61038 15 6.41995 15.6494C6.14651 16.5918 6.55666 17.7099 7.37698 18.2568C7.9385 18.6328 8.75393 18.7695 9.36428 18.584C10.0039 18.3984 9.92092 18.4766 14.7061 13.6816C18.7295 9.65819 19.2324 9.13573 19.2617 8.96972C19.3301 8.59862 19.1641 8.24706 18.8418 8.08104C18.6807 7.99804 18.3731 7.98827 18.1778 8.05663C18.0996 8.08593 16.0928 10.0586 13.5977 12.5488C11.0977 15.0439 9.09573 17.0117 9.0176 17.041C8.65139 17.1777 8.20705 17.0019 8.02151 16.6504C7.88479 16.3916 7.87991 16.206 8.00686 15.9473C8.13381 15.6787 16.7276 7.0996 17.0401 6.92382C17.7627 6.52343 18.7002 6.65038 19.2471 7.21679C19.6572 7.64647 19.794 8.02245 19.7647 8.62792C19.7305 9.38476 20.0235 9.04784 14.9502 14.126C11.8643 17.2168 10.3213 18.7256 10.1065 18.8721C9.18362 19.4873 7.98733 19.5264 7.04495 18.9648C6.44924 18.6084 5.95608 17.9785 5.751 17.3096C5.58987 16.7969 5.60452 16.1182 5.7803 15.6006C5.85354 15.3857 5.98049 15.0976 6.0635 14.9658C6.15627 14.8242 7.72366 13.208 9.89162 11.0351C11.9375 8.98436 13.5928 7.29003 13.6172 7.2119C13.8467 6.60155 13.3096 5.9912 12.6846 6.15233C12.499 6.20116 12.0938 6.59179 8.89065 9.78026C6.92287 11.748 5.17971 13.5156 5.01858 13.7158C3.88577 15.1221 3.72952 17.1045 4.62307 18.7012C4.95022 19.2822 5.71682 20.0488 6.29788 20.376C7.06448 20.8057 7.81643 20.9766 8.73928 20.9326C9.66213 20.8935 10.4873 20.5908 11.2051 20.0439C11.3955 19.8974 13.6123 17.7099 16.1367 15.1758C21.1123 10.1904 20.9512 10.3662 21.2246 9.54589C21.3369 9.20897 21.3565 9.07226 21.3565 8.5205C21.3614 7.80761 21.3076 7.55858 21.0049 6.93358C20.8682 6.65038 20.7266 6.46483 20.3848 6.12304C20.0088 5.74218 19.877 5.64452 19.4815 5.45409C18.7832 5.11229 18.085 5.00976 17.3428 5.13183Z" fill="url(#paint1_linear_452_345)"/>
</g>
<defs>
<linearGradient id="paint0_linear_452_345" x1="12.4903" y1="24.9271" x2="12.4903" y2="0.0674114" gradientUnits="userSpaceOnUse">
<stop stop-color="#364590"/>
<stop offset="1" stop-color="#723B83"/>
</linearGradient>
<linearGradient id="paint1_linear_452_345" x1="12.7018" y1="20.9393" x2="12.7018" y2="5.08236" gradientUnits="userSpaceOnUse">
<stop stop-color="#364590"/>
<stop offset="1" stop-color="#723B83"/>
</linearGradient>
<clipPath id="clip0_452_345">
<rect width="25" height="25" fill="white"/>
</clipPath>
</defs>
</svg>
