<svg width="66" height="60" viewBox="0 0 66 60" fill="" xmlns="http://www.w3.org/2000/svg">
<path d="M29.0233 0.390694C26.9861 1.00465 26.2884 1.33953 24.2512 2.65116C22.2698 3.93488 18.1954 7.67442 16.6605 9.6C15.8512 10.6046 15.8512 10.6884 16.3256 10.9674C18.1954 12 18.9489 14.1488 19.2 19.1721L19.3954 22.7163L18.6419 23.4698C17.9442 24.1395 17.8605 24.4465 17.8605 26.093C17.8605 28.8837 18.8093 30.7814 20.4 31.1163C20.9023 31.2279 21.2093 31.4791 21.2093 31.7581C21.2093 32.5395 22.5768 35.1907 23.7489 36.7535C24.3349 37.5628 24.8372 38.2884 24.8372 38.3721C24.8372 38.4837 24.5582 39.1535 24.2512 39.9349C23.2744 42.1674 21.6 42.893 13.8698 44.5395C8.53955 45.6558 6.69769 46.2419 5.05118 47.4419C2.65118 49.1721 1.59072 51.4884 0.586066 57.1535L0.0837402 60H32.7628H65.4698L64.9675 57.1535C64.0186 51.7674 63.1814 49.7302 61.2 48C59.6093 46.6047 57.7675 45.907 52.7442 44.7907C43.1442 42.6977 42.0558 42.1395 40.9116 38.8744C40.521 37.786 40.521 37.786 41.8884 36C42.6698 34.9674 43.4512 33.5442 43.7023 32.707C44.0093 31.6465 44.2605 31.2558 44.6512 31.2558C44.9303 31.2558 45.4047 31.0326 45.6837 30.7535C46.3535 30.1674 47.4977 27.0977 47.5256 25.7581C47.5535 24.4744 46.6605 23.6093 45.3489 23.6372L44.3721 23.6651L45.3489 22.5488C48.9489 18.3349 48.7535 11.3023 44.8744 7.08837C43.6465 5.74883 41.3861 4.46511 40.2698 4.46511C39.8791 4.46511 39.1814 3.9907 38.5116 3.23721C36.8372 1.45116 34.4651 0.279064 32.1768 0.13953C31.0326 0.055809 29.7768 0.167439 29.0233 0.390694ZM40.0744 13.3674C42.3907 15.0977 43.3954 18.4744 42.9489 22.9953C42.6698 25.6744 42.893 26.1488 44.1209 25.5349C46.1023 24.5023 46.4651 25.1721 45.4326 27.9628L44.8465 29.6372L43.8698 29.4419C42.6977 29.2186 42.4186 29.5256 42.4186 31.1442C42.4186 33.4605 39.2651 37.4233 36.1675 38.986C34.2698 39.9349 31.5907 40.1581 29.6372 39.5163C27.8512 38.9302 25.6744 36.9767 24.2233 34.7721C23.2465 33.2372 22.8837 32.3442 22.4651 30.3349C22.3256 29.693 22.1861 29.5814 21.3489 29.5814C20.0093 29.5814 19.4512 28.6605 19.4233 26.4279L19.3954 24.6977L20.2326 24.7256C20.707 24.7535 21.4605 24.8093 21.907 24.8651L22.7442 24.9767L22.7721 22.8837C22.8279 18.4744 25.0884 16.4651 31.2 15.3767C34.1861 14.8465 37.3396 13.7302 37.9814 12.9488C38.4558 12.3907 38.8186 12.4744 40.0744 13.3674ZM40.2419 41.0233L41.2744 42.9767L39.4326 47.9163C38.4279 50.6512 37.5349 52.9674 37.4233 53.0791C37.3116 53.1907 36.6977 52.0186 36.0279 50.4837L34.8279 47.7209L35.6093 46.6884C36.5582 45.4326 36.614 44.2046 35.7489 43.4791C34.7721 42.7256 31.3396 42.7535 30.307 43.5628C29.2465 44.4 29.3861 45.5721 30.7256 47.0512C31.2558 47.6093 31.2558 47.6651 30.0837 50.4558C29.414 52.0186 28.8279 53.3023 28.7442 53.3023C28.6605 53.3023 27.6558 50.9581 26.4837 48.0837L24.3628 42.893L25.1442 41.6093C25.5907 40.9116 25.9535 40.186 25.9535 39.9907C25.9535 39.4884 26.0651 39.5163 28.0465 40.493C30.4465 41.6651 32.5396 41.8326 35.0512 41.0791C36.1116 40.7442 37.4233 40.186 37.9535 39.7953C38.4837 39.4046 38.9861 39.0977 39.0698 39.0977C39.1535 39.0698 39.6837 39.9628 40.2419 41.0233Z" fill="" fill-opacity="0.9"/>
</svg>
