<svg width="17" height="17" viewBox="0 0 17 17" fill="none" xmlns="http://www.w3.org/2000/svg">
<path d="M14.3437 4.51562C14.3437 6.12921 11.7272 7.4375 8.5 7.4375C5.27283 7.4375 2.65625 6.12921 2.65625 4.51562M14.3437 4.51562C14.3437 2.90204 11.7272 1.59375 8.5 1.59375C5.27283 1.59375 2.65625 2.90204 2.65625 4.51562M14.3437 4.51562V12.4844C14.3437 14.098 11.7272 15.4062 8.5 15.4062C5.27283 15.4062 2.65625 14.098 2.65625 12.4844V4.51562M14.3437 4.51562V7.17187M2.65625 4.51562V7.17187M14.3437 7.17187V9.82812C14.3437 11.4417 11.7272 12.75 8.5 12.75C5.27283 12.75 2.65625 11.4417 2.65625 9.82812V7.17187M14.3437 7.17187C14.3437 8.78546 11.7272 10.0937 8.5 10.0937C5.27283 10.0937 2.65625 8.78546 2.65625 7.17187" stroke="#404040" stroke-width="1.5" stroke-linecap="round" stroke-linejoin="round"/>
</svg>
