<?xml version="1.0" standalone="no"?>
<!DOCTYPE svg PUBLIC "-//W3C//DTD SVG 20010904//EN"
 "http://www.w3.org/TR/2001/REC-SVG-20010904/DTD/svg10.dtd">
<svg version="1.0" xmlns="http://www.w3.org/2000/svg"
 width="500.000000pt" height="500.000000pt" viewBox="0 0 500.000000 500.000000"
 preserveAspectRatio="xMidYMid meet">

<g transform="translate(0.000000,500.000000) scale(0.100000,-0.100000)"
fill="#000000" stroke="2">
<path d="M2319 4820 c-193 -23 -384 -109 -533 -241 -125 -110 -247 -314 -284
-474 l-19 -80 -524 -5 c-500 -5 -526 -6 -557 -25 -37 -22 -72 -86 -72 -131 0
-41 31 -95 70 -121 30 -21 44 -23 175 -23 l143 0 6 -52 c3 -29 58 -615 121
-1303 141 -1545 128 -1428 169 -1547 98 -286 319 -499 614 -592 135 -42 257
-48 953 -43 557 3 643 6 709 21 347 81 621 343 709 680 11 43 25 135 31 205
26 318 241 2614 246 2622 3 5 67 9 143 9 127 0 141 2 171 23 95 64 90 187 -10
255 l-33 22 -586 0 -586 0 -23 88 c-45 177 -134 325 -275 458 -156 147 -335
229 -552 254 -99 11 -110 11 -206 0z m265 -320 c182 -46 345 -177 424 -340 23
-47 44 -97 48 -112 l6 -28 -635 0 -636 0 19 55 c49 142 160 281 281 353 149
87 330 114 493 72z m1376 -813 c0 -19 -50 -571 -110 -1228 -61 -657 -115
-1249 -120 -1317 -12 -149 -30 -225 -78 -316 -70 -134 -194 -241 -346 -300
l-81 -31 -695 -3 c-784 -3 -774 -4 -923 71 -61 30 -101 60 -157 116 -116 117
-171 242 -185 416 -4 50 -58 649 -121 1332 -63 684 -114 1254 -114 1268 l0 25
1465 0 1465 0 0 -33z"/>
<path d="M1931 3098 c-25 -13 -54 -36 -65 -51 -21 -28 -21 -39 -24 -779 -2
-736 -2 -752 18 -793 53 -110 201 -112 265 -4 20 33 20 52 20 784 0 732 0 751
-20 783 -43 71 -124 96 -194 60z"/>
<path d="M2985 3105 c-52 -18 -93 -67 -100 -119 -3 -23 -5 -368 -3 -768 3
-719 3 -727 24 -755 11 -15 36 -38 54 -50 78 -54 193 -6 219 90 9 30 11 245 9
772 -3 713 -3 731 -23 765 -37 62 -112 89 -180 65z"/>
</g>
</svg>
