<svg width="" height="" viewBox="0 0 20 18" fill="" xmlns="http://www.w3.org/2000/svg">
<path d="M1.5999 0.600006C1.91816 0.600006 2.22339 0.726434 2.44843 0.951478C2.67347 1.17652 2.7999 1.48175 2.7999 1.80001V16.2C2.7999 16.5183 2.67347 16.8235 2.44843 17.0485C2.22339 17.2736 1.91816 17.4 1.5999 17.4C1.28164 17.4 0.976418 17.2736 0.751374 17.0485C0.526331 16.8235 0.399902 16.5183 0.399902 16.2V1.80001C0.399902 1.48175 0.526331 1.17652 0.751374 0.951478C0.976418 0.726434 1.28164 0.600006 1.5999 0.600006ZM10.8483 4.55161C11.0733 4.77664 11.1996 5.08181 11.1996 5.40001C11.1996 5.7182 11.0733 6.02337 10.8483 6.24841L9.2967 7.80001H18.3999C18.7182 7.80001 19.0234 7.92643 19.2484 8.15148C19.4735 8.37652 19.5999 8.68175 19.5999 9.00001C19.5999 9.31826 19.4735 9.62349 19.2484 9.84853C19.0234 10.0736 18.7182 10.2 18.3999 10.2H9.2967L10.8483 11.7516C11.0669 11.9779 11.1878 12.2811 11.1851 12.5957C11.1824 12.9103 11.0562 13.2113 10.8337 13.4338C10.6112 13.6563 10.3102 13.7825 9.99558 13.7852C9.68095 13.7879 9.37783 13.667 9.1515 13.4484L5.5515 9.8484C5.32654 9.62337 5.20016 9.3182 5.20016 9.00001C5.20016 8.68181 5.32654 8.37664 5.5515 8.15161L9.1515 4.55161C9.37654 4.32664 9.68171 4.20026 9.9999 4.20026C10.3181 4.20026 10.6233 4.32664 10.8483 4.55161Z" fill=""/>
</svg>
