<svg width="123" height="40" viewBox="0 0 123 40" fill="none" xmlns="http://www.w3.org/2000/svg">
<mask id="mask0_3_15" style="mask-type:alpha" maskUnits="userSpaceOnUse" x="0" y="0" width="123" height="40">
<path d="M42.1817 8.37746C40.5648 8.53521 38.6607 9.13803 37.6003 9.82535C36.8914 10.2761 35.8545 11.093 35.7842 11.2451C35.7139 11.3972 35.7373 11.4423 36.6454 12.8169C37.2898 13.7915 37.3543 13.9155 37.243 13.9155C37.0672 13.9155 36.6923 13.6056 35.7607 12.6986C34.8468 11.8028 34.6242 11.6225 34.6242 11.769C34.6242 11.8592 35.6611 13.2056 36.5106 14.2197C36.663 14.4056 36.7919 14.5803 36.7919 14.6028C36.7919 14.7155 36.6337 14.6084 36.0478 14.107C35.2862 13.4535 35.0929 13.3127 35.0929 13.4197C35.0929 13.4592 35.3389 13.7465 35.6377 14.0563C35.9306 14.3662 36.3466 14.8225 36.5516 15.0704C36.7626 15.3183 37.1668 15.7577 37.4597 16.0394C37.823 16.4056 37.9518 16.5634 37.8757 16.5634C37.8112 16.5634 37.1434 15.9662 36.2529 15.1155C35.4209 14.3211 34.7414 13.6958 34.7414 13.7352C34.7414 13.769 34.8468 13.9549 34.9757 14.1465C35.3917 14.7662 35.1983 14.6648 34.1496 13.7183C33.1537 12.8113 33.1127 12.7887 33.347 13.2789C33.9211 14.4845 34.0032 14.7042 33.8743 14.7042C33.804 14.7042 33.1713 14.2704 32.9076 14.0451C32.7787 13.938 32.6674 13.8648 32.6498 13.8817C32.6323 13.893 32.6908 14.0563 32.7787 14.2366C32.8959 14.4676 32.9486 14.6817 32.9662 14.9859C32.9955 15.4366 33.0072 15.3972 32.1694 17.7127C31.6773 19.0648 31.0212 22.2084 30.7868 24.3099C30.4294 27.5437 31.0446 29.6845 32.7377 31.0423C33.6634 31.7915 35.0636 32.2141 37.0145 32.3437C38.9888 32.4732 40.9866 32.2141 42.4571 31.6338C43.0137 31.4141 43.9217 30.9352 44.3553 30.6366C44.9411 30.2366 45.7965 29.4648 46.3179 28.862C46.6167 28.5183 47.0092 28.1183 47.1908 27.9718C47.5365 27.6845 47.6478 27.4592 47.5892 27.1324C47.5541 26.9014 47.6829 26.7606 47.9407 26.7606C48.2688 26.7606 48.3098 26.6986 48.2219 26.3662C48.1751 26.1859 48.1633 26.0563 48.1985 26.0225C48.2336 25.9887 48.4035 26.0225 48.6496 26.1127C48.8664 26.1915 49.0656 26.2423 49.0949 26.2253C49.1241 26.2084 49.0831 26.0169 49.0011 25.8028C48.8957 25.5042 48.8605 25.2958 48.8605 24.9127V24.4169L49.0949 24.1972C49.3233 23.9831 49.3292 23.9662 49.3292 23.6C49.3292 23.3521 49.3995 22.9746 49.5342 22.4732C50.0732 20.5183 50.4716 18.7437 50.6474 17.5211C50.7645 16.6986 50.8466 14.4282 50.788 13.5493C50.6942 12.1127 50.167 10.9014 49.2413 9.99436C48.345 9.12112 47.0385 8.57465 45.4332 8.39437C44.947 8.34366 42.6621 8.32676 42.1817 8.37746ZM43.5292 12.0056C44.3846 12.1352 44.8708 12.6648 45.0876 13.6958C45.2575 14.4958 45.152 16.0789 44.8181 17.7408C44.6833 18.4113 44.5896 18.5972 44.408 18.5521C44.2674 18.5183 44.2557 18.631 44.3553 19.0197C44.4431 19.3408 44.3611 19.5493 44.1502 19.5493C44.0682 19.5493 43.992 19.5718 43.9745 19.5944C43.9452 19.6451 44.2967 20.3493 44.49 20.631L44.5896 20.7831L44.408 20.8732C44.3025 20.9239 44.1971 21.0366 44.1619 21.1324C44.1326 21.2225 44.0741 21.2958 44.033 21.2958C43.992 21.2958 43.7518 21.1944 43.4999 21.0648C43.2421 20.9408 43.0254 20.862 43.0137 20.8901C43.0019 20.9239 43.1543 21.2451 43.3417 21.6169C43.5351 21.9831 43.7343 22.4113 43.787 22.5746C43.9159 22.9465 44.1971 23.3634 44.8357 24.1239C45.3102 24.693 45.5035 24.9577 45.4391 24.9577C45.3805 24.9577 44.5486 24.2648 43.8397 23.6282C43.4413 23.2732 43.0781 22.9859 43.0312 22.9859C42.9668 22.9859 42.9434 23.0535 42.9434 23.2676C42.9434 23.6225 42.8555 23.6338 42.586 23.307C42.4805 23.1775 41.965 22.6253 41.4436 22.0845C40.0199 20.5972 39.9028 20.5239 40.9046 21.7577C42.0411 23.1549 42.6973 24.0113 42.8672 24.3099L43.0254 24.6028L42.8027 25.2169C42.2462 26.7549 41.3615 27.938 40.4242 28.3944C39.8207 28.6873 38.7662 28.8 38.0456 28.6479C37.284 28.4845 36.991 28.2873 36.7157 27.7465C36.4462 27.2282 36.411 27.0253 36.4169 25.9155C36.4286 24.7155 36.4872 24.2197 36.9383 21.8873C37.1082 20.9859 37.2723 20.1465 37.2898 20.0169C37.3191 19.8535 37.3719 19.7521 37.4714 19.6901C37.6355 19.5887 37.6238 19.493 37.3953 18.9915C37.1492 18.462 37.2723 18.5127 38.3912 19.4141C38.8365 19.769 39.2232 20.0563 39.2583 20.0451C39.3286 20.0225 39.1411 19.6901 38.8131 19.2507C38.6666 19.0648 38.5611 18.8958 38.5787 18.8845C38.5904 18.8732 38.8248 19.0592 39.1001 19.3014C39.9789 20.0732 39.9731 20.0169 39.0298 18.6648C38.6607 18.1296 38.3678 17.6789 38.3854 17.662C38.403 17.6451 38.9127 18.0901 39.5161 18.6479C40.8401 19.8704 41.0979 19.9944 40.1781 18.969C39.9906 18.7606 39.5747 18.2535 39.2583 17.8423C38.9419 17.431 38.6256 17.0479 38.5553 16.9915C38.403 16.8563 38.3971 16.7887 38.5494 16.7887C38.7017 16.7887 38.7017 16.6535 38.5436 16.3099C38.4264 16.0563 38.4264 16.0282 38.5143 15.8479C38.5611 15.7465 38.649 15.662 38.6959 15.662C38.7486 15.662 39.0826 15.9324 39.4399 16.2592C39.7914 16.5859 40.1019 16.8394 40.1195 16.8225C40.1312 16.8056 39.8852 16.4563 39.563 16.0451C38.8775 15.1662 38.8131 15.0648 38.731 14.6197C38.6373 14.1352 38.6373 14.1239 38.8424 14.1577C39.1587 14.2197 39.3403 14.107 39.6274 13.6676C39.9203 13.2169 40.5882 12.569 40.9339 12.4056C41.7306 12.0225 42.6914 11.8704 43.5292 12.0056Z" fill="black"/>
<path d="M9.92445 8.54086C9.90102 8.62536 9.9186 8.85635 9.95961 9.0648C10.024 9.41409 10.024 9.45917 9.87759 9.85353C9.76041 10.1747 9.72526 10.3831 9.72526 10.7437C9.72526 11.2845 9.63153 11.5211 9.29173 11.8197C9.05738 12.0225 9.03981 12.0958 9.1687 12.2592C9.27415 12.3944 9.28001 12.6423 9.18627 12.7211C9.14526 12.7493 9.04567 12.7887 8.96365 12.8C8.78789 12.8225 8.78789 12.8394 8.95779 13.5775C9.02223 13.8704 9.09254 14.293 9.11597 14.5183L9.15698 14.924L8.91092 14.9859C8.23133 15.1606 7.54587 16.4676 7.81537 17.0817C7.94426 17.3634 7.93254 17.4085 7.76264 17.4085C7.68062 17.4085 7.5986 17.4479 7.57517 17.4986C7.54001 17.5887 7.76264 18.062 8.15516 18.7155C8.26062 18.8902 8.32506 19.0535 8.30163 19.0761C8.27819 19.1042 8.0087 19.0028 7.70405 18.8563C7.39941 18.7155 7.13577 18.6141 7.12406 18.6423C7.08305 18.6986 7.23537 19.2789 7.33496 19.4535C7.46385 19.6902 7.87395 20.2592 8.19032 20.6366C8.36021 20.8507 8.49496 21.031 8.48324 21.0479C8.47153 21.0592 8.26062 20.9465 8.01456 20.8C7.41113 20.4338 7.10062 20.3042 7.0186 20.3831C6.94244 20.4563 7.05375 21.1155 7.20022 21.4423C7.29395 21.6394 7.30567 21.769 7.27052 22.3324C7.24123 22.9014 7.21779 23.0085 7.12406 23.0761C6.98931 23.1662 6.83113 23.1775 6.6788 23.0986C6.59678 23.0592 6.54406 23.0648 6.47961 23.1268C6.40345 23.2056 6.40345 23.2451 6.47375 23.4817C6.58507 23.8197 6.58507 24.0676 6.47375 24.3155C6.39759 24.4958 6.3683 24.5127 6.18668 24.5014C6.07537 24.4902 5.96406 24.4958 5.94648 24.5127C5.92891 24.5296 5.96992 24.7099 6.03436 24.9071C6.13396 25.2169 6.13981 25.3127 6.08709 25.5775C6.04022 25.8141 6.04022 25.9775 6.0988 26.2254C6.28042 27.0817 6.23941 27.2451 5.80588 27.369C5.28446 27.5211 5.24931 27.8197 5.63598 29.031L5.88204 29.8141L5.62426 30.0338C5.45436 30.169 5.23174 30.2817 5.01497 30.338L4.67517 30.4338L4.72204 30.6648C4.78063 30.9578 4.78063 31.3747 4.71618 31.7521C4.66345 32.0845 4.6576 32.0789 5.22002 32.1409C5.718 32.1972 5.89961 32.1465 5.97577 31.9099C6.05194 31.6901 6.13396 31.6732 6.34486 31.831C6.6085 32.0338 6.81941 32.0732 7.02446 31.9775C7.29981 31.8366 7.42284 31.8648 8.20203 32.2254C8.60042 32.4113 8.96365 32.5634 9.00466 32.5634C9.05738 32.5634 9.05738 32.5183 8.98708 32.3662C8.90506 32.169 8.87577 31.9437 8.94021 31.9437C8.95779 31.9437 9.08082 32.0056 9.21557 32.0789C9.35031 32.1578 9.61395 32.2535 9.79557 32.2986C9.98304 32.3437 10.2643 32.462 10.4283 32.5578C10.5865 32.6535 10.7212 32.7155 10.7212 32.693C10.7212 32.631 10.4224 32.1578 10.1588 31.7916C9.93031 31.4873 9.84829 31.324 9.92445 31.324C9.93617 31.324 10.0592 31.3747 10.1998 31.4366C10.5455 31.5831 10.7388 31.5775 10.9438 31.4085C11.0434 31.3296 11.143 31.2676 11.1665 31.2676C11.1958 31.2676 11.3305 31.3747 11.4653 31.5042C11.8988 31.9099 11.7582 31.5493 11.1899 30.7887C10.8501 30.3437 10.4283 29.6789 10.4283 29.6056C10.4283 29.5831 10.5337 29.5775 10.6568 29.5944C10.938 29.6282 11.0317 29.5493 11.1313 29.1944C11.1665 29.0592 11.2309 28.9409 11.2778 28.924C11.3188 28.9071 11.5238 29.0197 11.7289 29.1718C11.9339 29.324 12.1566 29.4761 12.2269 29.5155C12.3558 29.5775 12.3558 29.5718 12.303 29.431C12.2679 29.3521 11.9925 28.9127 11.6879 28.462C11.3832 28.0113 11.1313 27.5944 11.1313 27.538C11.1313 27.4085 11.2778 27.4085 11.6645 27.5268C12.057 27.6507 12.1331 27.5887 11.9984 27.2451C11.8929 26.969 11.9047 26.9296 12.1097 26.9296C12.3089 26.9296 12.2855 26.7831 11.9984 26.2254L11.7523 25.7521L11.8226 25.3521C11.8636 25.1324 11.9515 24.8451 12.016 24.7155C12.1273 24.5071 12.1331 24.4507 12.0746 24.2366C12.0394 24.1071 12.0101 23.9718 12.0101 23.9437C12.0101 23.831 12.1917 23.893 12.4554 24.0845C12.7717 24.3211 13.0354 24.3549 12.9709 24.1521C12.9533 24.0845 12.8889 23.938 12.8303 23.831C12.7014 23.5887 12.303 22.5634 12.303 22.4789C12.303 22.4451 12.4378 22.4225 12.6253 22.4225C12.924 22.4225 12.9475 22.4113 12.9475 22.293C12.9475 22.2197 12.842 21.9887 12.7073 21.7803C12.5784 21.5718 12.4847 21.3859 12.5022 21.369C12.5198 21.3465 12.6487 21.3634 12.7834 21.4028C13.0002 21.4704 13.0354 21.4648 13.1057 21.3747C13.1467 21.3183 13.1818 21.1944 13.1818 21.093C13.1818 20.9972 13.2228 20.8169 13.2756 20.6986C13.3517 20.5183 13.3693 20.3211 13.3517 19.6394L13.3283 18.8L13.5919 18.6197C13.838 18.4507 13.8556 18.4225 13.8321 18.2197C13.8263 18.1014 13.7384 17.7972 13.6446 17.5549C13.5509 17.3071 13.4748 17.0986 13.4748 17.0873C13.4748 17.0761 13.5275 17.0704 13.5919 17.0704C13.8907 17.0704 14.0723 17.4873 14.4707 19.0704C14.9335 20.9296 16.7966 27.8761 17.7105 31.1549L17.9566 32.0282L19.4212 32.0676C20.2297 32.0901 21.7002 32.1071 22.702 32.0958L24.5123 32.0845L24.5885 31.831C24.6295 31.6901 24.7759 31.1099 24.9048 30.5352C25.3852 28.462 25.6079 27.5042 25.8715 26.4225C26.018 25.8197 26.2523 24.8394 26.3929 24.2535C27.5939 19.2113 29.1816 12.6254 29.6327 10.7887C29.9373 9.54931 30.0252 9.04226 29.9608 8.88452C29.9256 8.79438 29.7323 8.78874 27.5646 8.78874C24.817 8.78874 24.5182 8.80564 24.3951 8.99156C24.2838 9.14931 24.1022 9.85917 23.4695 12.5916C23.1941 13.769 22.7313 15.7183 22.4384 16.9296C22.1454 18.1352 21.7588 19.7465 21.583 20.5071C21.2432 21.9718 20.9444 23.0817 20.8507 23.2169C20.7628 23.3465 20.716 23.2225 20.4465 22.231C20.3117 21.7296 20.0246 20.6761 19.802 19.8873C19.5794 19.0986 19.1751 17.6282 18.9056 16.6197C17.359 10.8789 16.8669 9.13241 16.7204 8.91269C16.6384 8.79438 16.6032 8.78874 15.783 8.78874C15.3202 8.78874 14.6875 8.81691 14.3828 8.85072C13.8907 8.90142 13.7794 8.89579 13.4044 8.79438C12.9651 8.6817 12.8127 8.65917 12.5139 8.67043L12.344 8.67607L12.3792 9.0141C12.4261 9.43663 12.4143 9.43663 11.6996 9.09297C11.0727 8.78874 10.3521 8.48452 10.1236 8.42818C9.98304 8.40001 9.95961 8.41128 9.92445 8.54086Z" fill="black"/>
<path d="M109.643 8.45633C109.134 8.52394 108.149 8.74366 107.534 8.94084C105.888 9.45915 103.972 10.7211 103.257 11.7634C103.111 11.9775 103.099 12.0338 103.123 12.3606C103.14 12.5577 103.134 12.7493 103.111 12.7831C103.082 12.8338 102.941 12.8394 102.631 12.8113L102.185 12.7718L102.156 12.9352C102.138 13.0253 102.103 13.2225 102.086 13.369C102.068 13.5155 101.998 13.7803 101.939 13.9493C101.752 14.4732 101.734 14.7493 101.875 15.2563C102.062 15.9606 102.045 15.9887 101.558 15.7634C101.189 15.5887 101.148 15.6507 101.265 16.1915C101.5 17.2901 102.291 19.0141 102.812 19.5606C102.976 19.7352 103.351 20.0338 103.638 20.2253C103.931 20.4169 104.365 20.7211 104.611 20.907C105.167 21.3352 105.595 21.5944 105.618 21.5268C105.63 21.4986 105.519 21.3014 105.372 21.093C105.226 20.8789 105.12 20.6986 105.132 20.6873C105.185 20.6366 105.654 20.9915 106.21 21.493C106.767 22 107.071 22.1859 107.241 22.1183C107.376 22.0676 107.347 21.9549 107.118 21.6676C107.001 21.5211 106.925 21.3859 106.942 21.369C106.983 21.3296 107.317 21.538 107.698 21.8423C107.85 21.9606 108.19 22.1859 108.46 22.338C108.8 22.5352 109.192 22.8451 109.819 23.431C110.305 23.8761 110.833 24.3268 110.997 24.4282C111.278 24.6028 111.899 25.2056 111.899 25.307C111.899 25.3296 111.864 25.3521 111.828 25.3521C111.787 25.3521 111.659 25.3803 111.541 25.4084C111.266 25.4817 111.225 25.6282 111.383 25.9887C111.53 26.3099 111.495 26.4113 111.202 26.507C110.95 26.5859 110.844 26.7324 110.844 26.9915C110.844 27.2845 110.739 27.3465 110.376 27.2732C110.211 27.2394 109.989 27.2113 109.878 27.2113C109.69 27.2113 109.661 27.2394 109.526 27.4986C109.233 28.0507 109.227 28.0169 109.596 28.4056C109.936 28.7718 110.258 29.2169 110.258 29.3183C110.258 29.3521 110.053 29.1831 109.801 28.9408C109.555 28.7042 109.327 28.507 109.303 28.507C109.28 28.507 109.262 28.569 109.262 28.6423C109.262 28.8451 109.18 28.8676 108.876 28.738C108.548 28.5972 108.436 28.5915 107.991 28.7042C107.809 28.7493 107.522 28.7887 107.358 28.7887C107.2 28.7887 106.966 28.8056 106.849 28.8225C106.661 28.8563 106.632 28.8789 106.614 29.0366C106.597 29.2056 106.579 29.1944 105.782 28.4113C105.021 27.6563 104.693 27.2958 104.693 27.2113C104.693 27.1887 104.839 27.2451 105.027 27.3352C105.208 27.4197 105.366 27.4817 105.378 27.4704C105.396 27.4592 105.279 27.2845 105.12 27.0873C104.968 26.8901 104.699 26.4789 104.529 26.169C104.242 25.6507 103.814 25.0366 103.427 24.5746C103.128 24.2253 103.38 24.4 104.189 25.0986C104.962 25.7746 105.202 25.9549 105.255 25.9042C105.267 25.8873 105.161 25.6901 105.021 25.4592C104.792 25.0817 104.763 24.9915 104.728 24.5634C104.704 24.2704 104.646 23.9944 104.576 23.8592C104.388 23.4873 103.749 22.907 103.755 23.1099C103.755 23.1493 103.796 23.2338 103.843 23.2901C104.048 23.5549 103.884 23.5606 103.556 23.307C103.082 22.9296 102.941 22.9239 103.169 23.2789C103.234 23.3803 103.287 23.4986 103.287 23.5437C103.287 23.6507 102.976 23.5831 102.742 23.4253C102.513 23.2676 102.174 23.2676 101.799 23.431C101.506 23.5549 101.488 23.6056 101.617 23.9042C101.664 24.0169 101.681 24.1183 101.652 24.1352C101.623 24.1521 101.383 24.0282 101.119 23.8592C100.592 23.5211 100.475 23.4817 100.609 23.6789C101.4 24.8451 101.582 25.1493 101.512 25.2169C101.494 25.2394 101.377 25.1718 101.254 25.0761C101.131 24.9803 100.891 24.7944 100.726 24.6704L100.416 24.4394L99.7891 24.5577C99.4376 24.6253 99.1212 24.7155 99.0802 24.7493C98.9103 24.9183 98.6994 26.3268 98.6994 27.3521C98.6994 29.6169 99.8301 31.0535 102.232 31.831C103.363 32.1915 104.06 32.2986 105.941 32.3944C107.118 32.4563 107.329 32.4451 107.329 32.3155C107.329 32.2704 107.171 32.0451 106.978 31.8028C106.784 31.5606 106.626 31.3465 106.626 31.3239C106.626 31.1606 106.954 31.2958 107.54 31.6958C107.733 31.831 108.073 32.0169 108.296 32.1127C108.518 32.2085 108.87 32.4113 109.081 32.5577C109.292 32.7099 109.526 32.862 109.602 32.8958C109.714 32.9521 109.731 32.9465 109.731 32.8451C109.731 32.7775 109.643 32.5408 109.544 32.3211C109.391 31.9944 109.356 31.8479 109.362 31.5887C109.368 31.4028 109.385 31.2451 109.403 31.2282C109.421 31.2113 109.585 31.3296 109.772 31.493C110.194 31.8704 110.592 32.1127 110.768 32.1127C110.879 32.1127 110.932 32.0563 111.02 31.8592C111.096 31.6958 111.166 31.6056 111.237 31.6056C111.295 31.6056 111.5 31.707 111.694 31.831C112.432 32.3042 112.555 32.2761 112.397 31.662C112.28 31.2056 112.326 30.9183 112.543 30.7324C112.649 30.6423 112.696 30.6366 112.936 30.6873C113.299 30.7718 113.399 30.7155 114.043 30.107L114.553 29.6225L114.512 29.2056C114.482 28.8676 114.494 28.7775 114.564 28.7549C114.605 28.738 114.863 28.8113 115.133 28.9239C115.836 29.2113 116.129 29.307 116.187 29.2507C116.211 29.2282 116.181 29.0535 116.117 28.8732C116.052 28.693 116 28.4113 116 28.2479C116 28.062 115.941 27.7972 115.853 27.5718C115.607 26.9465 115.648 26.9183 116.211 27.3014C116.416 27.4423 116.621 27.5493 116.668 27.5324C116.756 27.4986 116.82 27.2 116.82 26.8056C116.82 26.6592 116.873 26.2761 116.937 25.9606C117.277 24.293 117.183 23.2507 116.603 22.1803C116.363 21.7408 115.519 20.8845 114.857 20.4113C114.125 19.8817 111.934 18.862 110.897 18.569C109.766 18.2423 109.573 18.1634 109.057 17.8141C108.442 17.3972 107.938 16.8225 107.681 16.2648C107.517 15.9099 107.481 15.3239 107.587 14.7662C107.704 14.1408 108.161 13.2338 108.524 12.9127C108.841 12.631 109.743 12.2028 110.258 12.0901C110.967 11.9268 112.18 12.0225 112.625 12.2704C112.918 12.4338 113.346 12.9859 113.434 13.3183C113.533 13.7014 113.533 15.0197 113.428 15.7915C113.381 16.1239 113.363 16.4113 113.387 16.4338C113.457 16.5014 118.619 15.9887 118.9 15.8873C119.087 15.8197 119.134 15.6225 119.263 14.4958C119.357 13.6225 119.357 13.5268 119.269 12.9408C119.052 11.5437 118.56 10.6704 117.511 9.81408C116.838 9.27323 115.115 8.60844 113.973 8.45633C113.445 8.38309 110.229 8.38873 109.643 8.45633Z" fill="black"/>
<path d="M81.6978 8.78873C81.0534 8.8169 80.9948 8.82817 80.9713 8.92957C80.9362 9.13239 80.7311 9.34648 80.4206 9.50422C80.0515 9.69577 80.0223 9.79718 80.2273 10.231C80.3386 10.4676 80.3796 10.6423 80.3796 10.9014C80.3796 11.0986 80.4206 11.3521 80.4734 11.4704C80.5495 11.6394 80.5612 11.8084 80.5378 12.1859C80.5261 12.462 80.4851 12.7099 80.4499 12.7437C80.4031 12.7887 80.28 12.7042 80.0164 12.4732C79.8113 12.293 79.5594 12.062 79.4481 11.9718L79.2489 11.8028L79.2841 12.1859L79.3134 12.569L79.1259 12.5521C78.8798 12.5296 78.9033 12.631 79.3016 13.2338C79.6825 13.8084 79.7235 13.9268 79.5946 14.1127C79.454 14.3211 79.4774 14.4676 79.7176 14.8C79.8348 14.9634 79.9168 15.1099 79.8992 15.1268C79.8816 15.1437 79.7528 15.1042 79.6122 15.0422C79.2196 14.8732 79.0907 14.8958 78.7978 15.1831L78.54 15.431L78.7275 16.0113C78.833 16.3324 78.915 16.6817 78.915 16.7887C78.915 16.9915 78.6162 17.831 78.5107 17.9324C78.4639 17.9775 78.3819 17.9662 78.2412 17.8986C77.9659 17.7746 77.9307 17.8592 78.1182 18.2084C78.2002 18.3606 78.2705 18.5465 78.2705 18.6141C78.2705 18.7775 78.1006 18.9296 77.9132 18.9296C77.5909 18.9352 77.5909 19.0028 77.9366 19.5268C78.2705 20.0338 78.4287 20.3718 78.3643 20.4338C78.3467 20.4507 78.1534 20.4 77.9307 20.3211C77.714 20.2366 77.5148 20.169 77.4913 20.169C77.4679 20.169 77.5206 20.3155 77.6027 20.4901C77.8722 21.0592 77.9542 21.3521 77.8663 21.4028C77.8253 21.431 77.7374 21.4366 77.6788 21.4253C77.5206 21.3859 77.4855 21.538 77.6027 21.7577C77.6554 21.8591 77.9893 22.3493 78.335 22.8394C78.6865 23.3352 78.9618 23.7521 78.9443 23.769C78.9267 23.7859 78.6631 23.5606 78.3584 23.2676C78.0538 22.9746 77.7901 22.7549 77.7726 22.7718C77.7491 22.7887 77.8839 23.0761 78.0596 23.4028C78.2412 23.7296 78.3643 24 78.3408 24C78.3115 24 78.1416 23.8366 77.9542 23.6338C77.6378 23.2901 77.2922 23.0422 76.9992 22.9577C76.8059 22.907 76.8235 22.9915 77.1281 23.6C77.2687 23.893 77.3742 24.1521 77.3566 24.1803C77.339 24.2028 77.216 24.2253 77.0812 24.2253C76.6887 24.2253 76.6829 24.2535 76.8996 24.7887C77.0051 25.0535 77.1223 25.4422 77.1574 25.662C77.2277 26.062 77.3625 26.7775 77.4035 26.9296C77.4152 26.9803 77.3449 27.0422 77.2219 27.0986L77.0227 27.1831L77.0578 27.7465C77.1574 29.5042 77.9132 30.7549 79.3954 31.6169C79.9168 31.9268 80.3445 32.0676 80.8835 32.1127C81.399 32.1521 81.5865 32.231 82.1899 32.6704C82.6235 32.9859 82.6938 32.9746 82.5473 32.6197C82.3305 32.0958 82.4008 32.0451 82.8402 32.4225C82.9984 32.5577 83.1859 32.6986 83.2562 32.7324C83.4554 32.8338 84.0412 32.7493 84.2404 32.5859C84.3342 32.5127 84.4455 32.4507 84.4982 32.4507C84.6212 32.4507 84.9727 32.693 85.4532 33.1042C85.6816 33.3014 85.8867 33.4648 85.9101 33.4648C85.9277 33.4648 85.8691 33.3296 85.7695 33.1662C85.6289 32.9239 85.5938 32.8 85.5938 32.5239C85.5938 32.2761 85.5527 32.0958 85.4473 31.8761C85.3653 31.7127 85.3008 31.5437 85.3008 31.4986C85.3008 31.4535 85.5 31.6056 85.7402 31.831L86.1855 32.2422L86.9588 32.2141C87.6443 32.1859 87.8083 32.1577 88.4 31.9718C89.6889 31.5718 91.0657 30.7549 91.8917 29.9042C92.3604 29.4253 92.9228 28.7606 93.1865 28.3887C93.5438 27.8704 93.6083 27.8253 93.9247 27.8366C94.077 27.8479 94.2234 27.8366 94.241 27.8141C94.2586 27.7972 94.2352 27.662 94.1824 27.5155C94.0125 27.031 94.0594 26.9296 94.4695 26.9296C94.5808 26.9296 94.6863 26.907 94.7038 26.8732C94.7214 26.8451 94.7097 26.6648 94.6687 26.4845C94.6335 26.2986 94.616 26.107 94.6394 26.0563C94.6687 25.9775 94.6863 25.9775 94.821 26.062C94.9616 26.1521 94.9851 26.1521 95.0671 26.0676C95.1257 26.0169 95.1667 25.8648 95.1784 25.6901C95.196 25.3634 95.2545 25.2676 95.483 25.2113C95.8521 25.1211 95.8638 25.0141 95.5709 24.3493C95.3893 23.9493 95.3483 23.7972 95.36 23.5211C95.3659 23.1099 95.3659 23.1155 97.9202 12.4789C98.6408 9.46478 98.7697 8.87324 98.6935 8.80563C98.6232 8.73803 95.858 8.72112 94.4168 8.77746C93.2978 8.82253 93.122 8.83943 93.0576 8.92957C93.0166 8.98028 92.9111 9.30704 92.8291 9.65633C92.5245 10.8958 91.382 15.6 91.1301 16.6873C90.8196 17.9887 90.7962 18.0563 90.5735 18.2817C90.4329 18.4225 90.4036 18.507 90.3861 18.7887L90.3685 19.1268L90.0287 19.1549L89.6948 19.1831L89.8705 19.5099C90.0111 19.7634 90.0756 19.9831 90.1517 20.5127L90.2455 21.1944L90.0814 21.6507C89.9877 21.9042 89.8998 22.2817 89.8822 22.4958C89.8647 22.7493 89.8295 22.8901 89.7768 22.9127C89.7299 22.9296 89.5014 22.8338 89.2671 22.7042C89.0386 22.569 88.8218 22.4507 88.7925 22.4338C88.7047 22.3887 88.7984 22.8563 88.9917 23.4592C89.0913 23.7803 89.1675 24.1408 89.1675 24.3099C89.1675 24.8732 88.6402 26.2817 88.1012 27.1662C87.7614 27.7183 87.1814 28.2761 86.701 28.4958C86.2265 28.7211 85.5352 28.8901 84.92 28.9352C84.5099 28.969 84.4045 28.9577 84.1525 28.8507C83.555 28.5972 83.2913 28.2084 83.0804 27.2732C83.016 26.9915 82.8578 26.5352 82.7348 26.2648C82.4008 25.5606 82.4008 25.5437 82.5649 25.4366C82.8695 25.2451 82.9164 24.862 82.6938 24.3718C82.6117 24.1972 82.5473 24.0394 82.5473 24.0282C82.5473 24.0169 82.641 24.0676 82.7582 24.1408C82.8754 24.2197 82.9984 24.2817 83.0218 24.2817C83.0804 24.2817 83.1156 24.1408 83.1624 23.6901C83.1976 23.3859 83.3851 22.5465 83.9885 20.062C84.2111 19.138 84.3635 18.2141 84.3635 17.7859C84.3635 17.4422 84.3869 17.3972 84.6388 17.2732C84.9727 17.1099 85.0372 16.5465 84.7677 16.0507C84.6447 15.8084 84.6622 15.7183 84.8263 15.7183C84.9962 15.7183 85.0606 15.6 85.1544 15.093C85.2012 14.8338 85.2657 14.5296 85.3008 14.4225C85.3301 14.3155 85.3594 14.1352 85.3594 14.0225C85.3594 13.9099 85.4414 13.5662 85.5352 13.2676C85.8691 12.231 86.6483 9.09295 86.6483 8.79436C86.6483 8.72676 83.139 8.72112 81.6978 8.78873Z" fill="black"/>
<path d="M56.2658 8.82817C56.0431 8.8676 56.0431 8.98591 56.2423 13.2958C56.4005 16.7155 56.4708 17.5155 56.6642 18.0789C56.7813 18.4338 56.7813 18.4451 56.6759 18.5183C56.5763 18.5915 56.5646 18.6761 56.5646 19.3972C56.5646 20.169 56.5763 20.2141 56.7579 20.6366C56.8575 20.8789 56.9454 21.0873 56.9454 21.1042C56.9454 21.1155 56.8926 21.1268 56.8341 21.1268C56.7286 21.1268 56.4298 20.9408 55.9846 20.5972C55.8674 20.507 55.7561 20.4507 55.7326 20.4676C55.7151 20.4901 55.8674 20.7493 56.0666 21.0479C56.3712 21.4986 56.4415 21.6451 56.4708 21.9155C56.5177 22.2761 56.5528 22.3437 57.127 23.0761C57.3496 23.3521 57.5312 23.6056 57.5312 23.6282C57.5312 23.6507 57.4433 23.6056 57.3438 23.5268C56.8868 23.1944 56.7989 23.3521 57.0332 24.0901C57.209 24.6479 57.209 24.9183 57.0332 24.9465C56.6173 25.0028 56.6349 24.9859 56.67 25.3746C56.6876 25.5718 56.7638 25.8817 56.8282 26.062C56.9395 26.3549 56.9629 26.5803 57.004 28C57.0567 29.6225 57.1504 31.3014 57.2149 31.7803C57.2442 32.0282 57.2559 32.0451 57.4609 32.0789C57.5781 32.0958 59.1306 32.1127 60.9058 32.1127C63.3957 32.1127 64.1514 32.0958 64.2276 32.0394C64.3506 31.9549 65.2118 30.3437 67.6255 25.7183C68.6742 23.7014 69.5706 22.0056 69.6175 21.9493C69.6995 21.8422 69.7053 21.8422 69.8987 21.9831C70.01 22.062 70.1272 22.1408 70.1623 22.1577C70.2033 22.1803 70.1154 21.8592 69.9748 21.4479C69.8342 21.0422 69.7171 20.6366 69.7171 20.5465C69.7171 20.4113 69.7405 20.3944 69.9104 20.3944C70.0217 20.3944 70.1213 20.3775 70.1447 20.3606C70.1975 20.3099 70.051 20.0507 69.6702 19.5211C69.4241 19.1718 69.3714 19.0648 69.4417 19.0535C69.7229 18.9972 70.6193 19.7183 71.4922 20.6873C71.8613 21.0986 72.2831 21.5493 72.4296 21.6845L72.6932 21.9268L72.7811 21.769C72.8924 21.5549 73.0799 20.9296 73.9352 17.9437C74.3278 16.5803 74.7906 14.969 74.9663 14.3662C75.5639 12.3324 76.472 9.15493 76.4954 9.00845C76.5247 8.8676 76.5071 8.86197 76.2084 8.82817C75.8744 8.78873 56.4708 8.78873 56.2658 8.82817ZM68.0942 10.8789C68.5161 10.9915 68.4926 10.5859 68.475 16.6423L68.4575 22.0958L68.2993 22.2253C68.0239 22.4563 67.2096 22.4845 66.9928 22.2704C66.9049 22.1915 66.8991 21.6451 66.9167 16.5915C66.9284 11.9549 66.946 10.9859 67.0163 10.9127C67.11 10.8 67.731 10.7831 68.0942 10.8789ZM59.4704 10.969C59.5407 11.0423 59.5524 12 59.5524 16.6873C59.5524 21.6282 59.5407 22.3211 59.4646 22.3718C59.3474 22.4451 58.4452 22.3831 58.1932 22.2817L57.9999 22.2028L58.0058 17.1437C58.0116 11.5606 58.0292 11.0761 58.1991 10.9521C58.3749 10.8338 59.365 10.8394 59.4704 10.969ZM64.4385 10.9239C64.5029 10.9634 64.5146 11.1268 64.4912 11.7521C64.4619 12.3944 64.4326 12.6141 64.3037 12.969C64.1514 13.4141 62.6223 16.4169 62.5169 16.4732C62.3763 16.5634 62.3353 16.0958 62.3411 14.2873C62.347 11.938 62.3938 10.9972 62.511 10.9296C62.6223 10.862 64.3272 10.8563 64.4385 10.9239ZM64.4268 17.6958C64.4854 17.7972 64.4971 18.3831 64.4854 20.1127L64.4736 22.3944L63.7413 22.4338C63.3371 22.4563 62.8567 22.4563 62.6751 22.4394C62.3587 22.4113 62.3353 22.3944 62.3353 22.2704C62.3353 22.0169 62.511 21.4648 62.8625 20.6197C63.05 20.1634 63.2492 19.707 63.3019 19.6056C63.3546 19.5042 63.5597 19.0422 63.753 18.5746C63.9405 18.107 64.128 17.6789 64.1573 17.6225C64.2334 17.4873 64.333 17.5155 64.4268 17.6958Z" fill="black"/>
</mask>
<g mask="url(#mask0_3_15)">
<rect x="0.430115" y="-0.430084" width="122.366" height="40.4301" fill="url(#paint0_linear_3_15)"/>
</g>
<defs>
<linearGradient id="paint0_linear_3_15" x1="122.796" y1="19.785" x2="0.430115" y2="19.785" gradientUnits="userSpaceOnUse">
<stop stop-color="#763A82"/>
<stop offset="1" stop-color="#314491"/>
</linearGradient>
</defs>
</svg>
