<svg width="" height="" viewBox="0 0 17 15" fill="none" xmlns="http://www.w3.org/2000/svg">
<path d="M0 7.53083C0.000530813 8.43428 0.734115 9.16627 1.63756 9.16733L10.9417 9.16627L8.42666 11.6818C7.74563 12.3634 7.71059 13.434 8.34969 14.0742C8.98932 14.7117 10.06 14.6782 10.7421 13.9967L15.995 8.74268C16.6781 8.06165 16.7127 6.99047 16.0725 6.35084C16.055 6.33544 16.0364 6.32377 16.0194 6.30837C15.9976 6.28555 15.9823 6.25848 15.9594 6.23459L10.7766 1.05279C10.1035 0.380782 9.04081 0.354242 8.40171 0.993871C7.76208 1.6335 7.78968 2.69672 8.46063 3.36979L10.9846 5.89328H1.63756C0.733053 5.89275 0 6.62527 0 7.53083Z" fill="white"/>
</svg>
