<svg width="368" height="513" viewBox="0 0 368 513" fill="none" xmlns="http://www.w3.org/2000/svg">
<rect width="368" height="513" rx="19" fill="url(#paint0_linear_118_328)"/>
<path d="M54.9809 88.444C52.0733 89.0361 52.0733 90.8122 54.6748 155.513C56.7407 206.852 57.6589 218.861 60.1839 227.319C61.7142 232.647 61.7142 232.817 60.3369 233.916C59.0362 235.016 58.8831 236.284 58.8831 247.11C58.8831 258.697 59.0362 259.374 61.4081 265.717C62.7089 269.354 63.8566 272.483 63.8566 272.737C63.8566 272.906 63.1679 273.075 62.4028 273.075C61.0255 273.075 57.1233 270.284 51.3082 265.125C49.7779 263.772 48.3241 262.926 48.018 263.18C47.7885 263.518 49.7779 267.409 52.3794 271.891C56.3581 278.657 57.2763 280.856 57.6589 284.916C58.271 290.329 58.7301 291.344 66.2285 302.339C69.1361 306.483 71.508 310.289 71.508 310.627C71.508 310.966 70.3603 310.289 69.0596 309.105C63.0914 304.115 61.9437 306.483 65.0043 317.563C67.2997 325.936 67.2997 329.995 65.0043 330.418C59.5718 331.264 59.8013 331.01 60.2604 336.846C60.4899 339.806 61.4846 344.458 62.3263 347.164C63.7801 351.562 64.0861 354.946 64.6217 376.259C65.3104 400.617 66.5346 425.821 67.3763 433.01C67.7588 436.731 67.9119 436.985 70.5899 437.493C72.1202 437.746 92.3966 438 115.58 438C148.099 438 157.97 437.746 158.964 436.901C160.571 435.632 171.819 411.443 203.343 342.005C217.039 311.727 228.746 286.269 229.358 285.423C230.429 283.816 230.506 283.816 233.031 285.931C234.484 287.115 236.015 288.299 236.474 288.553C237.009 288.891 235.862 284.07 234.025 277.896C232.189 271.807 230.659 265.717 230.659 264.364C230.659 262.334 230.965 262.08 233.184 262.08C234.637 262.08 235.938 261.826 236.244 261.573C236.933 260.812 235.02 256.921 230.046 248.971C226.833 243.727 226.144 242.12 227.062 241.951C230.735 241.105 242.442 251.931 253.843 266.478C258.663 272.652 264.172 279.418 266.085 281.448L269.528 285.085L270.676 282.717C272.13 279.503 274.578 270.115 285.749 225.289C290.876 204.822 296.92 180.633 299.216 171.583C307.02 141.051 318.88 93.3495 319.186 91.1505C319.569 89.0361 319.339 88.9515 315.437 88.444C311.075 87.852 57.6589 87.852 54.9809 88.444ZM209.464 119.23C214.973 120.922 214.667 114.832 214.437 205.752L214.208 287.622L212.142 289.568C208.546 293.035 197.91 293.458 195.079 290.244C193.932 289.06 193.855 280.856 194.085 204.991C194.238 135.384 194.467 120.837 195.385 119.737C196.61 118.046 204.72 117.792 209.464 119.23ZM96.8344 120.583C97.7526 121.683 97.9056 136.061 97.9056 206.429C97.9056 280.603 97.7526 291.006 96.7579 291.767C95.2276 292.866 83.4443 291.936 80.1542 290.413L77.6292 289.229L77.7057 213.279C77.7822 129.464 78.0118 122.19 80.2307 120.329C82.5262 118.553 95.4571 118.638 96.8344 120.583ZM161.719 119.907C162.561 120.499 162.714 122.951 162.407 132.339C162.025 141.981 161.642 145.28 159.959 150.608C157.97 157.29 137.999 202.369 136.622 203.215C134.786 204.568 134.25 197.548 134.327 170.399C134.403 135.13 135.015 121.006 136.546 119.991C137.999 118.976 160.265 118.892 161.719 119.907ZM161.566 221.568C162.331 223.09 162.484 231.886 162.331 257.851L162.178 292.105L152.614 292.697C147.334 293.035 141.06 293.035 138.688 292.782C134.556 292.359 134.25 292.105 134.25 290.244C134.25 286.438 136.546 278.15 141.136 265.463C143.585 258.613 146.186 251.762 146.875 250.239C147.564 248.717 150.242 241.782 152.767 234.762C155.215 227.742 157.664 221.314 158.046 220.468C159.041 218.439 160.342 218.861 161.566 221.568Z" fill="white"/>
<defs>
<linearGradient id="paint0_linear_118_328" x1="-3.97997e-06" y1="249.5" x2="368" y2="256" gradientUnits="userSpaceOnUse">
<stop stop-color="#364590"/>
<stop offset="1" stop-color="#723B83"/>
</linearGradient>
</defs>
</svg>
