<svg width="36" height="43" viewBox="0 0 36 43" fill="none" xmlns="http://www.w3.org/2000/svg">
<path d="M4.97444 0.413139C3.3686 1.02336 2.01969 2.34015 1.40948 3.94599C0.95984 5.10219 0.927723 7.47883 0.991957 21.835L1.08831 38.3752L1.95546 39.692C2.46933 40.4628 3.3686 41.2657 4.20364 41.6832C5.58466 42.3255 6.03429 42.3577 18.2708 42.3577C30.5073 42.3577 30.9569 42.3255 32.3379 41.6832C33.173 41.2657 34.0722 40.4628 34.5861 39.692L35.4533 38.4073L35.5496 27.6161C35.6138 19.7796 35.5496 16.4394 35.2606 15.4117C34.9073 14.1912 33.9438 13.0672 28.516 7.63942C25.0474 4.13869 21.7073 1.02336 21.1292 0.70219C20.1978 0.220438 19.1058 0.124088 13.1321 0.0598544C7.80071 -0.00437916 5.93794 0.0598544 4.97444 0.413139ZM18.2708 8.05693C18.3029 16.054 19.5233 17.2745 27.3598 17.3066H31.7598V27.327C31.7598 36.1912 31.6956 37.4117 31.2138 37.9255C30.7321 38.4715 29.8971 38.5037 18.335 38.5037C7.25473 38.5037 5.90582 38.4394 5.35984 37.9577C4.81385 37.4759 4.78174 36.5124 4.78174 21.2569C4.78174 5.51971 4.81385 5.07007 5.42407 4.45985C6.03429 3.84964 6.48393 3.81752 12.1686 3.81752H18.2708V8.05693ZM26.1073 13.3883C22.3175 13.5168 22.1248 13.3241 22.1248 9.47007V6.54745L25.4971 9.91971L28.8693 13.292L26.1073 13.3883Z" fill="#E31B21"/>
<path d="M16.0226 18.5913C15.2518 19.3621 15.1876 21.0321 15.8299 23.2161C16.2795 24.6935 16.2795 24.7898 15.1876 27.3913C14.1277 29.9285 13.9992 30.0891 12.4576 30.8278C8.63575 32.5942 7.67224 36.2555 11.0445 36.2555C12.3613 36.2555 13.9029 35.0351 15.3803 32.7869C16.2795 31.438 16.5686 31.2132 18.335 30.7635L20.3263 30.2497L21.7394 31.1489C22.5102 31.6307 23.57 32.1445 24.0839 32.2409C25.4649 32.5621 27.2314 31.8555 27.4562 30.9562C27.97 28.9329 26.2357 27.7767 22.9598 27.9694L21.0328 28.0657L20.0051 26.7168L18.9773 25.3679L19.427 23.5051C20.1978 20.3256 19.3628 17.9489 17.4679 17.9489C17.0182 17.9489 16.3759 18.238 16.0226 18.5913Z" fill="#E31B21"/>
</svg>
