<svg width="" height="" viewBox="0 0 17 13" fill="none" xmlns="http://www.w3.org/2000/svg">
<path d="M13.8125 6.49999C13.8125 5.62732 13.7799 4.76245 13.7147 3.90607C13.6646 3.22759 13.3724 2.5897 12.8914 2.10864C12.4103 1.62758 11.7724 1.33536 11.0939 1.28524C9.36707 1.15496 7.63293 1.15496 5.90608 1.28524C5.22761 1.33536 4.58972 1.62758 4.10865 2.10864C3.62759 2.5897 3.33537 3.22759 3.28525 3.90607C3.27321 4.0619 3.26258 4.21845 3.25267 4.37499M13.8125 6.49999L15.9375 4.37499M13.8125 6.49999L11.6875 4.37499M3.1875 6.49999C3.1875 7.37265 3.22008 8.23753 3.28525 9.0939C3.33537 9.77242 3.62759 10.4103 4.10865 10.8914C4.58972 11.3724 5.22761 11.6646 5.90608 11.7147C7.63293 11.8451 9.36707 11.8451 11.0939 11.7147C11.7724 11.6646 12.4103 11.3724 12.8914 10.8914C13.3724 10.4103 13.6646 9.77242 13.7147 9.0939C13.7268 8.93807 13.7374 8.78153 13.7473 8.62499M3.1875 6.49999L5.3125 8.62499M3.1875 6.49999L1.0625 8.62499" stroke="" stroke-width="1.5" stroke-linecap="round" stroke-linejoin="round"/>
</svg>
