<svg width="" height="" viewBox="0 0 31 30" fill="" xmlns="http://www.w3.org/2000/svg">
<g clip-path="url(#clip0_446_336)">
<path d="M11.6097 0.0659956C9.97767 0.173996 8.50767 0.575996 6.98967 1.314C2.26167 3.624 -0.522329 8.718 0.0896709 13.95C0.359671 16.236 1.20567 18.324 2.63367 20.19C3.01767 20.694 4.08567 21.786 4.61967 22.218C7.93767 24.894 12.3537 25.71 16.4097 24.39C17.1597 24.144 18.6657 23.424 19.2837 23.016L19.6917 22.746L20.5437 23.508C21.0117 23.928 22.6977 25.446 24.2937 26.88C25.8897 28.314 27.2817 29.544 27.3837 29.616C27.7377 29.85 28.0917 29.952 28.5597 29.952C29.4237 29.952 30.1137 29.526 30.4917 28.752C30.6717 28.386 30.6897 28.302 30.6897 27.81C30.6837 27.348 30.6597 27.222 30.5217 26.934C30.4317 26.754 30.2757 26.502 30.1677 26.388C30.0297 26.232 22.9077 19.818 22.7517 19.71C22.7457 19.704 22.9017 19.428 23.1057 19.104C24.8397 16.35 25.4097 12.87 24.6537 9.642C23.6817 5.478 20.5437 2.04 16.4757 0.683996C15.4557 0.347996 14.4057 0.137996 13.3197 0.0599956C12.8397 0.0299956 12.4077 0.00599559 12.3597 0.0119956C12.3117 0.0119956 11.9757 0.0359956 11.6097 0.0659956ZM13.4697 2.88C15.1077 3.066 16.5597 3.588 17.8797 4.47C21.9177 7.17 23.3397 12.468 21.1857 16.812C19.8417 19.512 17.4177 21.378 14.3997 22.032C13.8597 22.146 13.5897 22.164 12.5097 22.17C11.4117 22.17 11.1657 22.152 10.5957 22.032C8.63367 21.612 7.07967 20.766 5.66367 19.356C4.54167 18.228 3.83967 17.118 3.33567 15.666C2.93367 14.514 2.85567 13.992 2.85567 12.54C2.85567 11.118 2.93367 10.566 3.30567 9.45C4.73367 5.178 9.04767 2.388 13.4697 2.88Z" fill=""/>
</g>
<defs>
<clipPath id="clip0_446_336">
<rect width="30.72" height="30" fill=""/>
</clipPath>
</defs>
</svg>
