<svg width="" height="" viewBox="0 0 18 18" fill="" xmlns="http://www.w3.org/2000/svg">
<path d="M1.29304 1.90548C1.07858 1.96173 0.853583 2.18673 0.786787 2.41173C0.755146 2.52774 0.741083 2.64727 0.755146 2.71759C0.769208 2.77735 1.26843 4.21876 1.86608 5.91329L2.95593 9.00001L1.86608 12.0832C1.26843 13.7813 0.769208 15.2227 0.755146 15.2824C0.712958 15.4863 0.821943 15.7606 1.00476 15.9223C1.23327 16.1227 1.45124 16.1684 1.73952 16.0734C2.17194 15.9328 16.9165 9.63634 17.0044 9.55899C17.3173 9.26719 17.3173 8.73282 17.0044 8.44102C16.9165 8.36016 2.1614 2.06368 1.74655 1.93009C1.51804 1.85626 1.48288 1.85626 1.29304 1.90548ZM7.80397 6.1172C10.5005 7.26329 12.7223 8.21251 12.7434 8.23009C12.761 8.24766 10.9645 8.25821 8.52819 8.25469L4.2778 8.24415L3.63444 6.41602C3.27936 5.41055 2.94186 4.4543 2.8821 4.29259C2.79069 4.03594 2.78366 4.00079 2.8364 4.01485C2.87155 4.0254 5.10749 4.9711 7.80397 6.1172ZM12.7399 9.76993C12.6942 9.81212 2.83991 13.9957 2.81179 13.9852C2.79421 13.9781 4.02468 10.4344 4.27077 9.78048C4.28132 9.74884 5.16726 9.73829 8.53171 9.73829C10.9575 9.73829 12.761 9.75235 12.7399 9.76993Z" fill=""/>
</svg>
