<svg width="" height="" viewBox="0 0 18 18" fill="" xmlns="http://www.w3.org/2000/svg">
<path fill-rule="evenodd" clip-rule="evenodd" d="M9 2.00835e-07C9.58707 -0.000214567 10.1613 0.171825 10.6515 0.494803C11.1418 0.81778 11.5265 1.2775 11.758 1.817L11.825 1.988L11.86 2.094L11.9 2.074C12.4002 1.82436 12.9601 1.71925 13.5168 1.77048C14.0734 1.82171 14.6048 2.02726 15.051 2.364L15.22 2.501L15.364 2.636C15.7855 3.05745 16.0719 3.59487 16.1868 4.17974C16.3017 4.76461 16.2398 5.37044 16.009 5.92L15.927 6.1L15.904 6.139L16.012 6.175C16.533 6.36207 16.9922 6.68952 17.3388 7.12117C17.6854 7.55282 17.9059 8.07188 17.976 8.621L17.995 8.824L18 9C18.0002 9.58707 17.8282 10.1613 17.5052 10.6515C17.1822 11.1418 16.7225 11.5265 16.183 11.758L16.012 11.825L15.905 11.86L15.926 11.9C16.1756 12.4002 16.2808 12.9601 16.2295 13.5168C16.1783 14.0734 15.9727 14.6048 15.636 15.051L15.499 15.22L15.364 15.364C14.9425 15.7855 14.4051 16.0719 13.8203 16.1868C13.2354 16.3017 12.6296 16.2398 12.08 16.009L11.9 15.927L11.86 15.904L11.825 16.012C11.6379 16.533 11.3105 16.9922 10.8788 17.3388C10.4472 17.6854 9.92812 17.9059 9.379 17.976L9.176 17.995L9 18C8.41293 18.0002 7.8387 17.8282 7.34845 17.5052C6.85821 17.1822 6.4735 16.7225 6.242 16.183L6.175 16.011L6.139 15.905L6.1 15.926C5.59981 16.1756 5.03989 16.2808 4.48322 16.2295C3.92655 16.1783 3.39522 15.9727 2.949 15.636L2.78 15.5L2.636 15.365C2.21452 14.9435 1.92808 14.4061 1.81321 13.8213C1.69834 13.2364 1.76023 12.6306 1.991 12.081L2.073 11.901L2.095 11.861L1.988 11.826C1.46699 11.6389 1.00783 11.3115 0.661235 10.8798C0.314643 10.4482 0.0941112 9.92912 0.0240001 9.38L0.00500032 9.177L2.00835e-07 9C-0.000214567 8.41293 0.171825 7.8387 0.494803 7.34845C0.81778 6.85821 1.2775 6.4735 1.817 6.242L1.989 6.175L2.094 6.139L2.074 6.1C1.82436 5.59981 1.71925 5.03989 1.77048 4.48322C1.82171 3.92655 2.02726 3.39522 2.364 2.949L2.5 2.78L2.635 2.636C3.05645 2.21452 3.59387 1.92808 4.17874 1.81321C4.76361 1.69834 5.36944 1.76023 5.919 1.991L6.099 2.073L6.138 2.095L6.174 1.988C6.36107 1.46699 6.68852 1.00783 7.12017 0.661235C7.55183 0.314643 8.07088 0.0941112 8.62 0.0240001L8.823 0.00500032L9 2.00835e-07ZM9 1.5C8.62712 1.50002 8.26761 1.63892 7.99158 1.88962C7.71555 2.14032 7.5428 2.48484 7.507 2.856L7.5 3V4.229C7.312 4.288 7.129 4.358 6.95 4.438L6.688 4.565L5.818 3.697C5.5459 3.42615 5.1803 3.26994 4.79648 3.26054C4.41267 3.25115 4.03987 3.38928 3.75484 3.6465C3.46981 3.90372 3.29426 4.26043 3.26434 4.64319C3.23442 5.02595 3.35241 5.40562 3.594 5.704L3.697 5.818L4.565 6.688C4.475 6.86 4.395 7.038 4.325 7.222L4.229 7.501L3 7.5C2.61478 7.50019 2.24441 7.64858 1.96561 7.91441C1.68682 8.18024 1.52099 8.54314 1.50248 8.92791C1.48396 9.31269 1.61419 9.68983 1.86618 9.9812C2.11816 10.2726 2.47258 10.4558 2.856 10.493L3 10.5H4.229C4.289 10.688 4.358 10.872 4.438 11.05L4.565 11.312L3.697 12.182C3.48749 12.3918 3.34484 12.6589 3.28707 12.9497C3.2293 13.2405 3.259 13.5419 3.37243 13.8158C3.48585 14.0898 3.6779 14.3239 3.92434 14.4888C4.17077 14.6536 4.46052 14.7417 4.757 14.742L4.901 14.736C5.188 14.708 5.468 14.598 5.704 14.406L5.818 14.303L6.688 13.435C6.86 13.525 7.038 13.605 7.222 13.675L7.501 13.771L7.5 15C7.50002 15.3729 7.63892 15.7324 7.88962 16.0084C8.14032 16.2844 8.48484 16.4572 8.856 16.493L9 16.5L9.144 16.493C9.49062 16.4598 9.8149 16.307 10.0612 16.0609C10.3075 15.8148 10.4605 15.4906 10.494 15.144L10.5 15V13.771C10.688 13.711 10.872 13.642 11.05 13.562L11.312 13.435L12.182 14.303C12.475 14.596 12.859 14.743 13.242 14.743L13.386 14.736C13.6562 14.7101 13.9143 14.6113 14.1327 14.4502C14.3512 14.2892 14.5219 14.0718 14.6266 13.8214C14.7313 13.571 14.766 13.2968 14.7272 13.0282C14.6883 12.7596 14.5773 12.5065 14.406 12.296L14.303 12.182L13.435 11.312C13.525 11.14 13.605 10.962 13.675 10.779L13.771 10.5H15L15.144 10.493C15.515 10.457 15.8594 10.2842 16.1099 10.0082C16.3605 9.73218 16.4993 9.37277 16.4993 9C16.4993 8.62723 16.3605 8.26782 16.1099 7.99181C15.8594 7.7158 15.515 7.54297 15.144 7.507L15 7.5H13.771C13.7123 7.3127 13.6425 7.12904 13.562 6.95L13.435 6.688L14.303 5.818C14.5739 5.5459 14.7301 5.1803 14.7395 4.79648C14.7489 4.41267 14.6107 4.03987 14.3535 3.75484C14.0963 3.46981 13.7396 3.29426 13.3568 3.26434C12.974 3.23442 12.5944 3.35241 12.296 3.594L12.182 3.697L11.312 4.565C11.14 4.475 10.962 4.395 10.779 4.325L10.5 4.23V3C10.5 2.60218 10.342 2.22064 10.0607 1.93934C9.77936 1.65804 9.39782 1.5 9 1.5ZM9 6C9.79565 6 10.5587 6.31607 11.1213 6.87868C11.6839 7.44129 12 8.20435 12 9C12 9.79565 11.6839 10.5587 11.1213 11.1213C10.5587 11.6839 9.79565 12 9 12C8.20435 12 7.44129 11.6839 6.87868 11.1213C6.31607 10.5587 6 9.79565 6 9C6 8.20435 6.31607 7.44129 6.87868 6.87868C7.44129 6.31607 8.20435 6 9 6ZM9 7.5C8.60218 7.5 8.22064 7.65804 7.93934 7.93934C7.65804 8.22064 7.5 8.60218 7.5 9C7.5 9.39782 7.65804 9.77936 7.93934 10.0607C8.22064 10.342 8.60218 10.5 9 10.5C9.39782 10.5 9.77936 10.342 10.0607 10.0607C10.342 9.77936 10.5 9.39782 10.5 9C10.5 8.60218 10.342 8.22064 10.0607 7.93934C9.77936 7.65804 9.39782 7.5 9 7.5Z" fill=""/>
</svg>
