<svg width="" height="" viewBox="0 0 73 47" fill="" xmlns="http://www.w3.org/2000/svg">
<path d="M33.6161 4.94642C33.1931 5.14167 32.8677 5.43456 32.8677 5.59727C32.8677 5.75998 32.5097 6.02031 32.0541 6.18303C30.5246 6.76879 30.1341 8.20065 30.1341 12.8542C30.1667 17.3125 30.1341 17.1498 32.1843 21.1199C32.9328 22.6169 33.0304 23.1375 32.8351 24.2114C32.5748 25.7735 30.7199 27.5633 27.6284 29.3206C22.5192 32.2168 22.324 32.347 21.608 33.8439C21.0874 34.8528 20.7945 36.2195 20.6318 38.1395L20.4365 41.0032H37.4236H54.4432L54.2154 38.0094C53.8574 33.2907 53.3693 32.6724 47.9347 29.6785C44.4202 27.7585 42.3375 25.8711 41.9795 24.2765C41.7517 23.2026 41.8493 22.747 42.6303 21.185C44.5829 17.4426 44.648 17.1498 44.8107 13.7328C44.9734 9.76267 44.648 8.55861 43.0209 6.9315C41.1985 5.17422 39.6365 4.55591 36.7727 4.58846C35.4385 4.58846 34.0066 4.75117 33.6161 4.94642Z" fill=""/>
<path d="M16.2712 7.84268C14.0909 9.30709 13.9281 9.82776 14.0583 14.644C14.1559 18.061 14.2861 18.9396 14.8068 19.7206C15.8156 21.2176 16.5966 23.105 16.5966 24.0162C16.5966 25.4806 13.8956 27.6609 8.78646 30.3619C7.02918 31.2731 6.02037 32.9328 5.72749 35.3734C5.53224 36.8378 5.59732 37.1633 6.31325 37.9768L7.09427 38.888H13.2122H19.3302L19.7207 36.3497C20.3064 32.5097 21.0224 31.6636 25.3505 29.3857C26.522 28.7999 27.5308 28.2141 27.5959 28.1491C27.6935 28.084 27.0101 27.3355 26.0664 26.4894C24.6345 25.1877 24.4068 24.8297 24.4393 23.8209C24.4393 23.1375 24.7973 21.966 25.2203 21.1525C26.6522 18.4515 26.7498 18.061 26.9125 14.7416C27.0752 11.1295 26.8474 10.3159 25.1552 8.72132C23.821 7.41963 22.0963 6.83387 19.7858 6.83387C18.0285 6.83387 17.5078 6.99658 16.2712 7.84268Z" fill=""/>
<path d="M49.8224 8.13556C48.9112 8.8515 48.1627 9.50234 48.1627 9.56742C48.1627 9.66505 47.8698 11.1945 47.5119 13.0169C47.1214 15.0671 46.861 17.6379 46.861 19.8182C46.861 22.4216 46.7308 23.463 46.3403 24.0162C45.8522 24.7321 45.8847 24.7321 47.0237 24.7321C47.642 24.7321 48.6834 24.5043 49.3017 24.2765C50.343 23.8209 50.4407 23.8209 50.4407 24.3741C50.4407 24.6996 49.6922 25.6758 48.781 26.5219C47.8698 27.368 47.1864 28.084 47.2515 28.1491C47.3166 28.1816 48.5532 28.8324 50.0502 29.5809C52.0027 30.5572 52.979 31.2731 53.6949 32.2494C54.8339 33.8439 54.964 34.2345 55.2569 36.8378L55.4847 38.888L61.1796 38.9531C67.3301 39.0507 68.2087 38.888 68.8596 37.4236C69.3803 36.2846 68.8921 33.1606 68.0135 31.924C67.5904 31.3056 66.1586 30.3294 64.4013 29.4182C61.2447 27.7911 58.2508 25.3504 58.2508 24.4067C58.2508 23.8535 58.3159 23.8209 59.162 24.2765C59.6501 24.5043 60.7566 24.7321 61.6352 24.7321H63.2298L62.6115 24.0487C62.0908 23.463 61.9932 22.8121 61.9606 19.7206C61.9281 14.6115 61.082 10.9993 59.585 9.30709C57.9905 7.5498 56.2983 6.83387 53.6298 6.83387C51.6122 6.83387 51.3844 6.89896 49.8224 8.13556Z" fill=""/>
</svg>
