<svg width="" height="" viewBox="0 0 4 13" fill="" xmlns="http://www.w3.org/2000/svg">
<g clip-path="url(#clip0_77_5259)">
<path d="M1.21559 0.178748C0.432342 0.347748 -0.107158 1.14075 0.0260915 1.924C0.126842 2.5025 0.510342 2.964 1.04659 3.14925C1.90134 3.44175 2.80809 2.94775 3.03884 2.06375C3.25334 1.23175 2.70734 0.357498 1.86234 0.178748C1.59584 0.120248 1.47559 0.120248 1.21559 0.178748Z" fill=""/>
<path d="M1.28634 4.98335C0.486836 5.1036 -0.111164 5.9356 0.0253356 6.7416C0.139086 7.41435 0.636336 7.9181 1.30259 8.03835C2.06309 8.17485 2.83334 7.6581 3.03809 6.88135C3.17134 6.3711 3.02184 5.8316 2.64159 5.43185C2.29384 5.06785 1.80634 4.90535 1.28634 4.98335Z" fill=""/>
<path d="M1.34794 9.80313C0.665443 9.88113 0.132443 10.4044 0.0251931 11.1031C-0.137307 12.1724 0.866943 13.1019 1.89719 12.8354C2.57644 12.6566 3.02819 12.1171 3.07694 11.4216C3.10619 11.0056 2.96969 10.6124 2.68369 10.2939C2.34244 9.91363 1.87119 9.74138 1.34794 9.80313Z" fill=""/>
</g>
<defs>
<clipPath id="clip0_77_5259">
<rect width="3.0875" height="13" fill="white"/>
</clipPath>
</defs>
</svg>
