<svg width="" height="" viewBox="0 0 272 350" fill="none" xmlns="http://www.w3.org/2000/svg">
<path d="M6.98087 0.444031C4.07332 1.03607 4.07332 2.81216 6.67481 67.5134C8.74071 118.852 9.65889 130.861 12.1839 139.319C13.7142 144.647 13.7142 144.817 12.3369 145.916C11.0362 147.016 10.8831 148.284 10.8831 159.11C10.8831 170.697 11.0362 171.374 13.4081 177.717C14.7089 181.354 15.8566 184.483 15.8566 184.737C15.8566 184.906 15.1679 185.075 14.4028 185.075C13.0255 185.075 9.12328 182.284 3.30817 177.125C1.77788 175.772 0.324097 174.926 0.0180383 175.18C-0.211506 175.518 1.77788 179.409 4.37937 183.891C8.35814 190.657 9.27631 192.856 9.65889 196.916C10.271 202.329 10.7301 203.344 18.2285 214.339C21.1361 218.483 23.508 222.289 23.508 222.627C23.508 222.966 22.3603 222.289 21.0596 221.105C15.0914 216.115 13.9437 218.483 17.0043 229.563C19.2997 237.936 19.2997 241.995 17.0043 242.418C11.5718 243.264 11.8013 243.01 12.2604 248.846C12.4899 251.806 13.4846 256.458 14.3263 259.164C15.7801 263.562 16.0861 266.946 16.6217 288.259C17.3104 312.617 18.5346 337.821 19.3763 345.01C19.7588 348.731 19.9119 348.985 22.5899 349.493C24.1202 349.746 44.3966 350 67.5805 350C100.099 350 109.97 349.746 110.964 348.901C112.571 347.632 123.819 323.443 155.343 254.005C169.039 223.727 180.746 198.269 181.358 197.423C182.429 195.816 182.506 195.816 185.031 197.931C186.484 199.115 188.015 200.299 188.474 200.553C189.009 200.891 187.862 196.07 186.025 189.896C184.189 183.807 182.659 177.717 182.659 176.364C182.659 174.334 182.965 174.08 185.184 174.08C186.637 174.08 187.938 173.826 188.244 173.573C188.933 172.812 187.02 168.921 182.046 160.971C178.833 155.727 178.144 154.12 179.062 153.951C182.735 153.105 194.442 163.931 205.843 178.478C210.663 184.652 216.172 191.418 218.085 193.448L221.528 197.085L222.676 194.717C224.13 191.503 226.578 182.115 237.749 137.289C242.876 116.822 248.92 92.6328 251.216 83.583C259.02 53.0508 270.88 5.34949 271.186 3.15048C271.569 1.03607 271.339 0.951477 267.437 0.444031C263.076 -0.14801 9.65889 -0.14801 6.98087 0.444031ZM161.464 31.23C166.973 32.9215 166.667 26.832 166.437 117.752L166.208 199.622L164.142 201.568C160.546 205.035 149.91 205.458 147.079 202.244C145.932 201.06 145.855 192.856 146.085 116.991C146.238 47.3842 146.467 32.8369 147.385 31.7375C148.61 30.0459 156.72 29.7922 161.464 31.23ZM48.8344 32.5832C49.7526 33.6827 49.9056 48.0608 49.9056 118.429C49.9056 192.603 49.7526 203.006 48.7579 203.767C47.2276 204.866 35.4443 203.936 32.1542 202.413L29.6292 201.229L29.7057 125.279C29.7822 41.4638 30.0118 34.1902 32.2307 32.3295C34.5262 30.5533 47.4571 30.6379 48.8344 32.5832ZM113.719 31.9066C114.561 32.4986 114.714 34.9514 114.407 44.3394C114.025 53.9811 113.642 57.2796 111.959 62.608C109.97 69.2896 89.9993 114.369 88.622 115.215C86.7857 116.568 86.2501 109.548 86.3266 82.399C86.4031 47.1304 87.0152 33.0061 88.5455 31.9912C89.9993 30.9763 112.265 30.8917 113.719 31.9066ZM113.566 133.568C114.331 135.09 114.484 143.886 114.331 169.851L114.178 204.105L104.614 204.697C99.3341 205.035 93.0599 205.035 90.6879 204.782C86.5561 204.359 86.2501 204.105 86.2501 202.244C86.2501 198.438 88.5455 190.15 93.1364 177.463C95.5849 170.613 98.1864 163.762 98.875 162.239C99.5636 160.717 102.242 153.782 104.767 146.762C107.215 139.742 109.664 133.314 110.046 132.468C111.041 130.439 112.342 130.861 113.566 133.568Z" fill="white"/>
</svg>
