<svg width="86" height="100" viewBox="0 0 86 100" fill="none" xmlns="http://www.w3.org/2000/svg">
<path d="M59.2501 0H15.7803C7.06446 0 0 7.06558 0 15.7803V84.2197C0 92.9355 7.06557 100 15.7803 100H69.988C78.7039 100 85.7683 92.9344 85.7683 84.2197V26.5182C85.7683 22.9642 84.357 19.5565 81.8437 17.0442L68.7241 3.9247C66.2114 1.4121 62.8036 0.000375124 59.2501 0Z" fill="#4FD397"/>
<path d="M81.8402 17.0441L68.7207 3.92456C66.8383 2.04238 64.4381 0.763515 61.8259 0.251091V14.9763C61.8259 19.6513 65.6155 23.4409 70.2906 23.4409H85.4054C84.8342 21.0189 83.5997 18.8038 81.8402 17.0441ZM60.4224 35.4718H43.4195C43.0636 35.3988 42.6967 35.3988 42.3409 35.4718H25.3379C23.8585 35.4718 22.6582 36.6721 22.6582 38.1515C22.6582 39.631 23.8585 40.8313 25.3379 40.8313H40.2004V69.7199C40.2004 71.1994 41.4007 72.3997 42.8802 72.3997C44.3596 72.3997 45.5599 71.1994 45.5599 69.7199V40.8313H60.4224C61.9019 40.8313 63.1022 39.631 63.1022 38.1515C63.1022 36.6721 61.9019 35.4718 60.4224 35.4718Z" fill="#19BC6E"/>
<rect x="20.1094" y="26.7974" width="44.104" height="46.4488" fill="#4FD397"/>
<path d="M62.7705 48.0914C64.9315 49.1885 64.967 52.2626 62.8319 53.4093L32.1368 69.8947C30.1516 70.9608 27.7435 69.5396 27.7175 67.2863L27.3452 35.0285C27.3192 32.7753 29.6938 31.2988 31.7031 32.3189L62.7705 48.0914Z" fill="white"/>
</svg>
